<svg xmlns="http://www.w3.org/2000/svg" viewBox="0 0 602.16 602.16"><defs><style>.cls-1{fill:#1d6aa9;}</style></defs><title>header</title><g id="Object"><path class="cls-1" d="M-134,452.32l-36.45-36.45a5,5,0,0,1,0-7.07,5,5,0,0,1,7.07,0l36.45,36.45a5,5,0,0,1,0,7.07A5,5,0,0,1-134,452.32Z" transform="translate(518.9 -60.37)"/><path class="cls-1" d="M15.54,660.53-158.53,486.46a6.8,6.8,0,0,1,0-9.62l56.09-56.1a6.81,6.81,0,0,1,9.63,0L81.26,594.81a6.81,6.81,0,0,1,0,9.63L25.17,660.53A6.81,6.81,0,0,1,15.54,660.53Z" transform="translate(518.9 -60.37)"/><path class="cls-1" d="M50.45,622.66l-24-24,29.33-29.33h0l-7.07-7.07h0L19.41,591.61l-25.1-25.09,29.33-29.33h0l-7.07-7.07h0l-29.33,29.32-25.1-25.1L-8.53,505h0L-15.6,498h0l-29.33,29.32L-70,502.17l29.33-29.32h0l-7.07-7.07h0L-77.1,495.1-102.2,470l29.33-29.32h0l-7.07-7.07h0l-29.33,29.32-17.68-17.68h0l-7.07,7.07h0L-116.34,470l-29.33,29.33h0l7.07,7.07h0l29.32-29.33,25.1,25.1L-113.5,531.5h0l7.08,7.07h0l29.32-29.33,25.1,25.1-29.32,29.33h0l7.08,7.07h0l29.32-29.33,25.1,25.11-29.32,29.32h0l7.07,7.07h0l29.32-29.32,25.1,25.1L-17,628h0l7.07,7.07h0l29.32-29.32,24,24a5,5,0,0,0,7.07-7.07Z" transform="translate(518.9 -60.37)"/><path class="cls-1" d="M81.26,594.81,73.49,587,7.77,652.76l7.77,7.77a6.81,6.81,0,0,0,9.63,0l56.09-56.09A6.81,6.81,0,0,0,81.26,594.81Z" transform="translate(518.9 -60.37)"/><path class="cls-1" d="M-272.25,314.1l-36.45-36.46a5,5,0,0,1,0-7.07,5,5,0,0,1,7.07,0L-265.18,307a5,5,0,0,1,0,7.07A5,5,0,0,1-272.25,314.1Z" transform="translate(518.9 -60.37)"/><path class="cls-1" d="M-451.19,62.36l174.07,174.07a6.81,6.81,0,0,1,0,9.63l-56.09,56.09a6.81,6.81,0,0,1-9.63,0L-516.91,128.08a6.8,6.8,0,0,1,0-9.62l56.09-56.1A6.81,6.81,0,0,1-451.19,62.36Z" transform="translate(518.9 -60.37)"/><path class="cls-1" d="M-301.63,270.57l-17.68-17.68L-290,223.57h0l-7.07-7.08h0l-29.32,29.32-25.1-25.1,29.33-29.32h0l-7.08-7.08h0l-29.32,29.33-25.1-25.1,29.32-29.33h0l-7.07-7.07h0l-29.32,29.33-25.1-25.1,29.32-29.33h0l-7.07-7.07h0l-29.32,29.33-25.1-25.1,29.32-29.33h0l-7.07-7.07h0l-29.32,29.33-24-24a5,5,0,0,0-7.07,0,5,5,0,0,0,0,7.07l24,24-29.33,29.32h0l7.07,7.08h0l29.33-29.32,25.1,25.1-29.33,29.32h0l7.07,7.08h0l29.33-29.33,25.1,25.1-29.33,29.32h0L-420,225h0l29.33-29.33,25.1,25.1-29.33,29.33h0l7.07,7.07h0l29.33-29.33,25.1,25.1-29.33,29.33h0l7.07,7.07h0L-326.38,260l17.68,17.68Z" transform="translate(518.9 -60.37)"/><path class="cls-1" d="M-516.91,128.08l7.77,7.78,65.72-65.73-7.77-7.77a6.81,6.81,0,0,0-9.63,0l-56.09,56.1A6.8,6.8,0,0,0-516.91,128.08Z" transform="translate(518.9 -60.37)"/><path class="cls-1" d="M-263.16,505.22l-98.44-98.44a22.36,22.36,0,0,1,0-31.62L-234,247.53a22.35,22.35,0,0,1,31.61,0L-103.91,346a22.35,22.35,0,0,1,0,31.61L-231.54,505.22A22.36,22.36,0,0,1-263.16,505.22Z" transform="translate(518.9 -60.37)"/><rect class="cls-1" x="-345.36" y="371.37" width="225.21" height="10" transform="translate(184.59 -114.71) rotate(-45)"/><rect class="cls-1" x="-308.16" y="321.45" width="183.93" height="76.72" transform="translate(710.01 197.89) rotate(45)"/><path class="cls-1" d="M-369.87,452.89h100a0,0,0,0,1,0,0v8.59a12.65,12.65,0,0,1-12.65,12.65h-74.66a12.65,12.65,0,0,1-12.65-12.65v-8.59A0,0,0,0,1-369.87,452.89Z" transform="translate(752.96 301.59) rotate(45)"/><path class="cls-1" d="M-146.22,350.46l-60.61-60.62a5,5,0,0,1,0-7.07,5,5,0,0,1,7.07,0l60.61,60.62a5,5,0,0,1,0,7.07A5,5,0,0,1-146.22,350.46Z" transform="translate(518.9 -60.37)"/><path class="cls-1" d="M-195.6,278.62h100a0,0,0,0,1,0,0v8.59a12.65,12.65,0,0,1-12.65,12.65h-74.66a12.65,12.65,0,0,1-12.65-12.65v-8.59a0,0,0,0,1,0,0Z" transform="translate(65.8 330.43) rotate(-135)"/><ellipse class="cls-1" cx="-102.84" cy="246.65" rx="30.32" ry="123.39" transform="translate(314.38 -60.84) rotate(-45)"/><path class="cls-1" d="M-124.28,268.09c-48.18-48.19-77.65-96.85-65.8-108.69-19.92,19.91-.76,78.88,47.42,127.07S-35.5,353.81-15.59,333.89C-27.43,345.74-76.09,316.27-124.28,268.09Z" transform="translate(518.9 -60.37)"/><path class="cls-1" d="M-112.51,256.32a5,5,0,0,1,0-7.07l44.4-44.4a5,5,0,0,1,7.07,0,5,5,0,0,1,0,7.07l-44.4,44.4A5,5,0,0,1-112.51,256.32Z" transform="translate(518.9 -60.37)"/><circle class="cls-1" cx="456.08" cy="146.27" r="15.13"/></g></svg>