<svg id="Capa_1" enable-background="new 0 0 500 500" height="512" viewBox="0 0 500 500" width="512" xmlns="http://www.w3.org/2000/svg"><circle cx="250" cy="250" fill="#08d3cf" r="245"/><path d="m257.5 100.333v-95.196c-2.6-.081-5.206-.137-7.825-.137-2.401 0-4.791.044-7.175.113v95.221z" fill="#fec753"/><path d="m242.5 76.036v24.298h15v-23.818c-4.999-.256-9.998-.433-15-.48z" fill="#e0a336"/><path d="m272.5 121.333h-45v-12.856c0-8.364 6.78-15.144 15.144-15.144h14.713c8.364 0 15.144 6.78 15.144 15.144v12.856z" fill="#1f3a60"/><path d="m475.68 198.535c-9.524-48.981-52.424-84.343-102.323-84.343h-58.691-23.516-82.3-23.515-58.691c-49.899 0-92.799 35.362-102.323 84.343l-22.836 117.442c-9.525 48.984 27.991 94.498 77.893 94.498 26.532 0 51.308-13.26 66.025-35.335l26.889-40.333c8.149-12.223 21.867-19.565 36.558-19.565h82.301c14.691 0 28.409 7.342 36.558 19.565l26.889 40.333c14.717 22.076 39.493 35.335 66.025 35.335 49.902 0 87.418-45.514 77.893-94.498z" fill="#35528c"/><g fill="#fec753"><circle cx="352.5" cy="212.833" r="18"/><circle cx="418.5" cy="212.833" r="18"/><circle cx="352.5" cy="263.833" r="18"/><circle cx="418.5" cy="263.833" r="18"/></g><path d="m346 213.333c0-8.198 5.486-15.103 12.983-17.277-2.014-.779-4.194-1.223-6.483-1.223-9.941 0-18 8.059-18 18s8.059 18 18 18c1.743 0 3.423-.261 5.017-.723-6.733-2.604-11.517-9.124-11.517-16.777z" fill="#e0a336"/><path d="m418.5 230.833c1.743 0 3.423-.261 5.017-.723-6.733-2.604-11.517-9.125-11.517-16.777 0-8.198 5.486-15.103 12.983-17.277-2.014-.779-4.194-1.223-6.483-1.223-9.941 0-18 8.059-18 18s8.059 18 18 18z" fill="#e0a336"/><path d="m346 264.333c0-8.198 5.486-15.103 12.983-17.277-2.014-.779-4.194-1.223-6.483-1.223-9.941 0-18 8.059-18 18s8.059 18 18 18c1.743 0 3.423-.261 5.017-.723-6.733-2.604-11.517-9.124-11.517-16.777z" fill="#e0a336"/><path d="m412 264.333c0-8.198 5.486-15.103 12.983-17.277-2.014-.779-4.194-1.223-6.483-1.223-9.941 0-18 8.059-18 18s8.059 18 18 18c1.743 0 3.423-.261 5.017-.723-6.733-2.604-11.517-9.124-11.517-16.777z" fill="#e0a336"/><path d="m498.901 321.072c-5.112 38.071-37.717 68.729-78.672 68.729-26.532 0-51.308-13.26-66.025-35.335l-26.889-40.333c-8.149-12.223-21.868-19.565-36.558-19.565h-82.3c-14.691 0-28.409 7.342-36.558 19.565l-26.889 40.333c-.123.184-.246.368-.371.551-23.35 34.399-77.507 17.396-77.026-24.176.055-4.737.536-9.55 1.479-14.396l22.835-117.442c9.524-48.981 52.424-84.343 102.323-84.343h15.761c1.738-.087 3.482-.142 5.239-.142h-6.794-23.515-58.692c-49.899 0-92.799 35.362-102.323 84.343l-22.834 117.442c-1.158 5.957-1.616 11.862-1.445 17.641.003.086.003.172.005.258.84 42.443 35.44 76.598 78.085 76.598 5.544 0 11.251-.382 16.468-1.479.112-.022.224-.046.336-.069 20.432-4.085 38.68-16.104 50.47-33.788l26.889-40.333c8.149-12.223 21.868-19.565 36.558-19.565h82.301c14.691 0 28.409 7.342 36.558 19.565l26.889 40.333c14.717 22.076 39.493 35.335 66.025 35.335 48.277.002 84.96-42.598 78.67-89.727z" fill="#1f3a60"/><path d="m144.109 219.333h-20.109v-20.109c0-6.015-4.876-10.891-10.891-10.891h-15.218c-6.015 0-10.891 4.876-10.891 10.891v20.109h-20.109c-6.015 0-10.891 4.876-10.891 10.891v15.217c0 6.015 4.876 10.891 10.891 10.891h20.109v20.109c0 6.015 4.876 10.891 10.891 10.891h15.217c6.015 0 10.891-4.876 10.891-10.891v-20.109h20.109c6.015 0 10.891-4.876 10.891-10.891v-15.217c.001-6.014-4.875-10.891-10.89-10.891z" fill="#fec753"/></svg>