<svg id="Layer_1" data-name="Layer 1" xmlns="http://www.w3.org/2000/svg" viewBox="0 0 493.39 501.37"><defs><style>.cls-1{fill:#fefefd;}.cls-2{fill:#15588f;}.cls-3{fill:#91c546;}.cls-4{fill:#cf9e46;}</style></defs><title>logo</title><path class="cls-1" d="M257.85,302.47l-.09-.14c-2.15,0-3.51,1.56-5.15,2.56A33.74,33.74,0,0,1,222,308.05c-10.44-3.78-18.56-10.79-26-18.76-11.65-12.44-21-26.65-30.44-40.68-12.9-19.17-23-40-34.6-60-5.72-9.89-10.34-20.37-15.17-30.73-14.4-30.86-29-61.62-38.22-94.57-1.11-4-1-8.35-3.43-11.89A56.36,56.36,0,0,0,48.18,30.33c-4.55-1.88-9.43-2.77-14.07-.47C24.32,34.72,15.6,41.08,9.19,50.07-4,68.63-1.37,88.15,6.79,107.48c7.94,18.71,19.16,35.69,30.36,52.61,24.66,37.28,51.66,72.72,83,104.74,10.86,11.12,22.12,21.81,34.52,31.3,14.05,10.75,28.81,20.17,45.77,25.53,23.25,7.34,43.57,1.13,57.47-17.13l.73,1.16c.56-3.72,4.52-5.68,5.31-9.79a20.82,20.82,0,0,0-5.87,5.11,1,1,0,0,0-.28,1.39ZM420.19,430.75l1.24,1.31c-2.3,6.39,3.67,7.12,6.75,9.81,2.09,1.82,4.39,1.92,6.12-.28,2.58-3.29,6.13-2.83,9.54-2.93a65.92,65.92,0,0,1,8,.24c2.76.28,3.3-.86,3.27-3.44-.14-12-.06-24-.05-36,0-1.79.6-3.51-2.58-3.5s-3.14,1.34-3.13,3.61c0,9.66-.28,19.34.06,29,.2,5.65-4,3.71-6.49,4.3-2.89.68-4.07-.74-3.63-3.94.26-1.87-.73-3.83-2-5.54-3-4.15-7.09-5.46-11.83-4.7a13.34,13.34,0,0,0-11.14,9.52c-.54,1.59,0,3.66-2.56,4.29-5.6,1.37-7.73-.05-8.08-5.75-.08-1.33-.23-2.66-.44-4-1.08-6.77-4.91-11.29-11.55-12.87-7.63-1.82-14.76-.52-19.85,5.92-4.32,5.45-4,11.87-1.71,18,1.22,3.35,4.05,5.13,7.87,5,4.66-.13,9.33-.2,14,0,1.31,0,3.49-.93,3.89,1s-1.25,3.41-2.85,4.27a8.72,8.72,0,0,1-3.84.68c-3.33.08-6.67.13-10,0-3.62-.16-3.37,1.24-2,3.81a4.22,4.22,0,0,0,4.36,2.55c3-.09,6-.07,9-.1,5.07-.05,8.89-2.6,10.44-7.14s4-5.18,8.14-5.12C420,438.94,417.72,439.25,420.19,430.75Zm-239.35-174A109.12,109.12,0,0,0,199,282.6c6.52,7.13,13.54,13.7,22.65,17.58,16.93,7.2,30.85-.3,42.05-11.71,9.32-9.5,16.4-20.56,22.13-32.36,10.41-21.47,19.87-43.42,30.24-64.92,7.28-15.1,15.19-30,27.76-41.6,7.35-6.8,17.86-10.46,27.9-2.44,5,4,8.51,9.23,12.24,14.31,1.57,2.14,2.62,4.82,5.78,6.68,1.19-14.53.58-28.21-3-41.63a38.61,38.61,0,0,0-6-13.58c-5.07-6.79-11.66-10.07-20.19-9.45-12.42.91-23.81,4.44-33,13.18-14.55,13.75-22.65,31.76-31.7,49.06-6.67,12.75-12.22,26.09-18.75,38.93a195.16,195.16,0,0,1-17.8,28c-7.18,9.62-14.72,18.6-24.53,25.42a43.4,43.4,0,0,1-23.19,8c-11.09.62-20.18-5-30.74-9.27ZM254,0C243-.2,232,1.33,221.15,2.7A226.83,226.83,0,0,0,182,11.62a240.78,240.78,0,0,0-38.34,16,222.86,222.86,0,0,0-25.89,16.12A196.93,196.93,0,0,0,90.13,67.32a5.72,5.72,0,0,0-1.54,5.84c.66,3.06,1.63,6.07,2.5,9.07,1.46,5,2.55,5,6.56,1.47.86-.77,1.63-1.65,2.52-2.4,6.93-5.89,12.45-13.34,20-18.53,6.76-4.67,13.93-8.7,21-12.85a222,222,0,0,1,43.06-19.29,146.43,146.43,0,0,1,25.43-6.34c8.75-1.26,17.34-3.81,26.12-4.65s17.64-.28,26.47-.31c15.92-.06,31.3,3.61,46.62,7.26,10.15,2.43,19.37,8.06,30,9.2a10.93,10.93,0,0,1,3.6,1.66c11.2,6.2,22.38,12.44,33.58,18.63,7.1,3.92,13.23,9.28,20.14,13.55,4.82,3,9.4,6.19,14.77,8.13,2.38.86,5.12,1.92,7-.11s-.87-3.37-1.81-4.93a2,2,0,0,1-.17-.46c-1.63-6-6.12-9.54-10.9-13-2-1.45-4.17-2.56-5.78-5a36.15,36.15,0,0,0-10-10.1C373.75,34,358.18,24,340.37,17.55,312.38,7.35,283.87.54,254,0Zm73.8,184.68c2.37-1.17,3.53-1.76,4.71-2.32,9-4.24,17.4-3.66,25.2,2.69,5.76,4.7,9.78,10.72,13.24,17.24A450.6,450.6,0,0,0,419.18,276c8,9.83,18.1,16.77,30.81,18.75,19.07,3,34.72-10.39,42.68-24.53.55-1,1.35-2.41-.34-3.7-1.35.85-2.72,1.74-4.11,2.6-14.27,8.8-29,11.47-44.27,2.83-7.21-4-12.89-9.89-18-16.26-12.24-15.34-20.45-33-28.66-50.62-6.64-14.3-12.3-29.13-21.28-42.24-9.54-13.92-20.35-14.79-32.08-2.82C337.2,166.8,332.85,175.19,327.75,184.7ZM167.22,211.47c5.67-6.3,10.93-12.18,19.74-12.9,8.55-.7,15.7,1.6,21.59,7.89,4.8,5.12,7.47,11.25,7,18.12-.88,12.27-8.3,19.91-20.7,24.31,15.89,5.27,29.43,2.18,40.26-7.23,17.58-15.29,19.44-42.11,2.52-58.36-9.23-8.86-9.58-7.4-17.56-.63-5.32,4.5-10.33,9.32-16.84,12.14-7.13,3.09-14.39,1.43-17.76-4.06-2.25-3.68-.76-7.67-.69-12.33C172,186.1,167.44,197.26,167.22,211.47ZM415.89,383.6v-8.15c0-9.52-.11-9.61-9.76-8.86-.33,0-.67.05-1,.06-2.39.06-3.08,1.28-2.85,3.59.39,3.81.5,7.64.71,11.45.12,2.15-.11,4.22-2.89,4.27-3.57.06-7.3,1.16-10.6-1-.32-.21.16-1.83.45-2.73,1.2-3.63,2.4-7.25,3.73-10.83,1.18-3.19.31-4.77-3.2-4.73-6.16.08-12.33-.06-18.48.21a18.08,18.08,0,0,0-13.93,6.77c-3.56,4.45-4.23,11.45-1.52,14.81,3.74,4.65,8.7,5.45,15,2.27,1.22-.61,2.16-1.22,3.67-.7a37.67,37.67,0,0,0,26.34-.35,1.65,1.65,0,0,1,2.06.18c5.47,4.19,15.37,2.42,19.83-3.37,2.43-3.15,5.22-6.07,7.27-9.43,2.89-4.73,6.84-5,11.53-4-3.38,13.53.49,18.56,14.45,18.78,7.32.11,14.65,0,22,0,2,0,4,0,5.8-1.12,1.35-.87,3.47-1.49,2.94-3.5s-2.55-1.08-3.87-1c-7.65.33-15.27-1-22.94-.27-1.95.2-4.81.44-5.12-2.6a13.68,13.68,0,0,1,2.68-9.37c1.3-1.82,3.77-1.63,5.56-.91,2.31.92.41,2.73-.1,3.73-1.82,3.52,0,4,2.85,3.93,1,0,2-.07,3,0,4.28.28,7.8-.72,8.34-5.68s-3.61-6.15-7.14-7.52a12.58,12.58,0,0,0-3.46-.32c-11-.92-22-.26-32.95-.57a8.34,8.34,0,0,0-7.54,3.78C423.61,374.54,420.76,379.06,415.89,383.6Zm-88.1-22v24.26c0,6.06,3.19,7.92,8.73,5.13a9.58,9.58,0,0,0,4.13-4.2q3-5.46,6-10.88c5.58-10,11.26-19.94,16.68-30,.8-1.48,2.88-3.57.91-5.24-1.45-1.22-3.87-1.11-5.73-.22a6,6,0,0,0-2.34,2.46c-2.86,5.06-5.61,10.17-8.41,15.27L341,370.49c-.94-8.32-.87-16.28-1-24.23,0-2,1.14-4.78-1.43-5.77a8,8,0,0,0-8,1.27,18.4,18.4,0,0,0-3.9,5c-5,8.2-10.38,16.23-15.76,24.54-1-1.75-.57-3-.4-4.32.79-6.27,1.72-12.53,1.69-18.87,0-5.48-2.33-7.87-7.83-8-3.82-.08-7.67.23-11.47-.07-4.22-.32-6.37,1.85-8.09,5.25-1.42,2.83-1.33,4.4,2.36,4.27,2.33-.08,4.66,0,7,0,5.68,0,5.73.32,5.07,6-1.25,10.73-2.16,21.5-3.28,32.24-.3,2.89.48,4.08,3.72,4.19,6,.2,9.61-2.83,12.26-7.68a125.76,125.76,0,0,1,15.86-22.77Zm33.87,124.17c-4.33,0-8.68-.27-13,.08s-6-.89-5.67-5.48c.42-6.13.23-12.31.1-18.47,0-1.91,1-5-2.34-5s-2.59,2.86-2.62,4.89c-.07,6.16,0,12.32,0,18.47,0,1.72.44,4-2.46,3.89-2.36-.07-2.3-1.88-2.46-3.57-.9-9.53-5-12.81-14.92-13.11-11.33-.34-16.09,11-12.24,20.08,1,2.39,2.76,4,5.78,3.79,3.65-.19,7.33-.06,11,0,1,0,2.67-.44,2.85,1.17a2.56,2.56,0,0,1-2.43,2.68h0c-3,.31-6,.24-9,.42-1.18.08-3-.55-3,1.51a3.45,3.45,0,0,0,1.93,3.25c5.27,2.53,15-.32,17.51-5.64,1.41-3,3.24-3.59,6.21-3.57,15.14.09,30.3-.27,45.44.07,8.74.19,17.51-.88,26.27.66,2.33.41,4.73-.87,4.67-4.33-.14-9-.09-18-.06-27,0-2.24-.53-4.19-3.09-4.25-2.91-.08-2.21,2.44-2.24,4.07-.13,7.16-.24,14.32-.11,21.47.06,3.17-1.48,4.19-4.21,4.05-3.22-.18-5.44-1.46-5.27-5.21.29-6.47.67-12.94.64-19.41,0-2.09-.16-5.32-3.55-4.9s-2.85,3.42-2.43,5.59c1.18,6.14.39,12.29.56,18.43.05,2,.09,4.74-2.3,4.85-3.16.14-1.94-2.91-2-4.61,0-4.53-1.9-7.52-6.28-9-8.45-2.81-17.11-.76-25.67-1.15-2.21-.1-3.49,2.15-3.53,4.22-.05,2.91,2.59,2.09,4.15,2.13,6.15.14,12.31,0,18.46,0,3.17,0,6,1.11,5.92,4.57s-3.19,4.2-6.12,4.26c-4.81.18-9.64.11-14.47.11Zm-185.2-89.23a14.57,14.57,0,0,0-2.44.63q-18.17,8.19-36.29,16.45c-1.95.89-4.52,1.74-3.78,4.46.68,2.52,3.29,2.23,5.42,2.24l29,.11c4.21,0,7.19,1.56,7.38,6.21.18,4.17-1.93,5.9-7.33,5.94-9,.08-18,.13-27,0-3.92-.06-9,1.71-11.48-.89-2.27-2.34-.74-7.27-.83-11.07v-1c.15-2.18-.89-3-3-2.83-1.85.11-3.32.35-3.23,2.72.08,2,.06,4,.06,6,0,7.52,0,7.39-7.7,7.2-2.69-.07-3.39-1-3.32-3.5.16-5,.08-10,0-15,0-2.79-3.5-4.79-4.69-2.8-2.34,3.92-4.91,1.32-6.7.62-9.5-3.68-18.54-.82-23.39,7.91-5.35,9.63.11,18.92,11.14,18.9q40.46-.06,80.9-.16c8.28,0,12.22-3.94,12.52-12.15.27-7.32-3.53-11.47-11.4-12.25-2.48-.24-5-.21-7.48-.25s-5.28,0-7.93,0l-.17-1.51c5.55-2.42,11-5,16.69-7.18C175.64,403.75,177.4,401.16,176.46,396.54ZM339.84,233.31a21.2,21.2,0,0,0,21.31-21.09c0-.34,0-.68,0-1-.31-10.3-9.87-21.82-21.93-21.24s-21.52,10.1-21.34,22.33A21.53,21.53,0,0,0,339.84,233.31ZM78.07,392v-.15H93.56a9.42,9.42,0,0,0,7.76-3.85c5.83-7.73,2.25-19.92-6.89-23.1-6.75-2.34-13.6-4.4-20.41-6.56-3.59-1.14-5.87-3.29-5.13-7.32.71-3.84,3.75-4.14,6.93-4.1,7.45.1,14.91,0,22.36.25,3.67.13,2.88-2.2,3-4.25s.27-3.94-2.87-3.88c-10,.18-20,.11-30,.25-4.74.07-8.23,2.72-9.11,7.12-1.93,9.74-.84,17.6,10.78,20.36,6.28,1.5,12.39,3.74,18.52,5.81,3.63,1.22,5.36,3.78,4.51,7.73-.82,3.78-3.78,3.66-6.66,3.66-7.33,0-14.66.06-22,0-3,0-5.33-.27-5.36,4.18s2.41,3.91,5.1,3.9ZM320.7,438.92v-.1c11.15,0,22.31.08,33.47,0,7-.07,10.95-4,11.48-11.16.56-7.6-2.67-12.3-9.78-13.11-9.94-1.13-20-.36-29.95-.43-2.87,0-3.44,2.83-3.63,4.69-.29,2.84,2.36,1.5,3.68,1.52,8.83.12,17.66,0,26.48.15,4.63.09,7.47,2.7,7.25,6.46-.27,4.45-3.14,5.71-7.21,5.69-11.82-.08-23.65-.08-35.47.09-3.2,0-4.5-.92-4.36-4.21.19-4.66.1-9.33,0-14-.05-3.19-3.53-5.3-5-3-2.2,3.39-3.69,1.19-5.49.44-9.1-3.83-18.33-1.15-23.6,7-2.9,4.5-3.75,9.54-1.19,14.21,2.37,4.34,6.62,6,11.81,5.89C299.7,438.73,310.2,438.92,320.7,438.92ZM197.83,491.18h12c2.85,0,5.18-1.35,5.36-4.07.26-3.92.48-7.9-.83-11.86-1.21-3.65-3.42-6.37-6.87-7.27-6.52-1.71-13.17-1.1-19.75.26-2,.4-2.93,1.42-2.89,3.39.07,3.33.15,6.65.26,10,0,1.08.49,2.15,1.65,2.17,5.48.06,11,.07,16.45-.08,1.53,0,2.29-1.54,2.34-2.87.08-2.11-1.77-1.53-2.94-1.58-2.83-.1-5.66,0-8.49-.06-1.11,0-2.49.25-2.93-1.24-.37-1.25.4-2.27,1.15-3.15,3.39-4,11.42-4.42,14.92-.58,2.45,2.7,3.78,6.17,2.31,9.68-1.23,2.94-4.33,1.69-6.7,1.71-6,0-12-.1-18,0-2.08,0-3.31-.14-3.9-2.58-1.25-5.12-5.18-7.3-10.1-7.73-5.6-.48-8.71,2.65-9.91,7.79-.66,2.81-2.62,2.56-4.63,2.49-2.46-.07-2.31-1.87-2.31-3.57v-6a2.4,2.4,0,0,0-2.25-2.54h-.26c-1.66,0-2.32,1.11-2.39,2.6a50.27,50.27,0,0,0,0,5.49c.25,3.39-1.18,4.85-4.61,4.83s-4.28-1.61-4.13-4.69c.16-3.49,0-7-.08-10.49,0-2.56-2.17-3.8-3.45-2.29-2.14,2.54-3.64.92-5.39.26-7.46-2.82-15,0-18.65,6.94s-.32,14.73,7.07,14.89c14.47.3,29,0,43.43-.21,2.34,0,4.16-.51,6.18,1.6,1.5,1.58,4.2,3.58,6.72,2.07C183,490.41,190.46,491.32,197.83,491.18ZM137.44,351.89c-9.12,0-15.28-.08-21.44,0-4.61.07-6.94,2.4-6.92,7.19q.09,14.71-.15,29.45c-.06,3.07,1.47,3.74,4,3.5,2.3-.21,5.18.72,5-3.49-.24-6.31-.18-12.65,0-19,.27-12.49-2.67-10.73,11.67-11,2.93,0,3.65,1.13,3.61,3.85-.13,8.32.12,16.65-.1,25-.09,3.43.88,4.76,4.44,4.71,3.36,0,4.67-1,4.57-4.56-.24-8.32-.1-16.64-.08-25,0-1.28-.56-3.29.87-3.59,3.75-.78,7.67-.95,11.27.61,2.63,1.13,3,3.74,3,6.36,0,7.48.13,15,0,22.46-.08,3.2,1.65,3.62,4.07,3.39,2.09-.19,4.9.92,4.82-3.08-.16-8.48.11-17-.15-25.46-.19-6.44-3.64-10-10-11C148.79,351.19,141.62,352.11,137.44,351.89ZM466.2,188.71c.16.95.27,1.92.5,2.85a193.8,193.8,0,0,1,5.11,40.49c.24,10.53-1.23,20.89-2.29,31.27-.54,5.3,1.08,5.49,5.41,4.13,7.79-2.45,8.6-2.91,8.86-11.35.28-9.48.48-19,.17-28.45-.36-11.07.85-22.28-2.37-33.18-1.15-3.86-4.46-5.32-7.79-2.93-.9.65-1.44.78-1.81-.27C471.08,188.71,468,190.08,466.2,188.71ZM239.84,417.86v-18c0-2,.42-3.83-2.89-3.9s-2.86,1.87-2.86,3.8c0,9.49-.36,19,.13,28.46.3,5.69-3.8,4.54-6.49,4.85-3.32.37-2.92-2.12-2.66-4.67,1.07-10.47-4.91-18.08-15.27-19.85A19.07,19.07,0,0,0,188,422.42c-.33,1.33-1.49,3.29.72,3.69,1.51.28,3.74,1.17,4.91-1.09.54-1,1-2.12,1.54-3.14,4-7.24,12-9.44,19.26-5.29,3.66,2.1,5.44,7.54,4.14,12.34-1.15,4.24-4.52,3.68-7.67,3.68-7,0-14,.11-21-.08-3.23-.09-3.31,1-2.1,3.48a4.49,4.49,0,0,0,4.64,2.88c14.57-.11,29.14-.18,43.7,0,3.37,0,3.83-1.2,3.73-4.08C239.68,429.19,239.83,423.54,239.84,417.86ZM208,374.54c0-3.66.08-7.32,0-11-.21-7.76-4-11.57-11.74-11.67-5.82-.07-11.64,0-17.46-.05-2.46,0-4.92-.66-5,3.43-.11,4.26,2.53,3.39,4.89,3.41h15c3.72,0,5.47,2.24,5.47,5.72,0,4.11-3.3,2.31-5.2,2.43-4.31.26-8.65,0-13,.16-5.59.27-8.52,3-9.42,8.38a24.78,24.78,0,0,0,.22,9.4c.87,4.06,3.13,6.52,7.38,6.86a186.75,186.75,0,0,0,23.42.07c3.91-.17,5.56-2.43,5.49-6.23C207.89,381.83,208,378.17,208,374.54ZM168,225.13c-.33,11.21,8.21,19.67,20.28,19.62,11.28,0,20.64-9,20.7-19.88.07-11.88-8.83-20.57-20.86-20.73C179.76,204,166.41,213.92,168,225.13ZM258.57,392c1.59-.69,4.63,1.5,5-2.63.35-3.67-1.33-4.54-4.47-4.66-5-.19-6.92-3.3-7-7.9-.06-3.49,0-7,0-10.47,0-7.32,0-7.56,7.46-7.44,3.64.06,4-1.46,3.94-4.44-.09-3.83-2.77-2.57-4.63-2.6-6.72-.13-6.72-.07-6.75-6.84v-3.49c0-1.16-.07-1.86-1.27-2.36-4.35-1.8-7.63.3-7.65,5,0,1.33-.06,2.66,0,4,.09,2.26-.28,3.95-3.2,3.71-2.66-.22-2.2,1.85-2.22,3.45s-.17,3.51,2.4,3.36c2.94-.17,3.06,1.72,3,3.92-.06,4.65,0,9.3,0,13.95.08,11.28,4,15.3,15.41,15.44ZM207.25,170.13a27.85,27.85,0,0,0-12.59,2.46c-5.76,2.71-9.14,10.66-6.52,15.7,2.05,3.94,10.44,5.8,15.36,3.19,6.79-3.59,11.75-9.56,17.83-14.09,2.49-1.87,1.81-3.41-1-4.57A36,36,0,0,0,207.25,170.13Zm23.44,181.7c-11.06.23-16.18,4.07-16.54,13.07-.32,8,0,16-.13,24-.08,3.43,2,3.24,4.23,3.1s4.8.75,4.66-3.22c-.21-6.32,0-12.65,0-19,0-8.13,2.13-10.56,10-11,2.4-.14,3-.81,3.22-3.13.57-5-2.86-3.67-5.44-3.82ZM302,474.38V460.92c0-2.07.1-4.25-2.87-4.14s-2.32,2.43-2.33,4.11c0,7.47.12,14.95.08,22.42s-4.86,11.58-12.19,10.15c-2.5-.48-4.64-1.42-5.17-4.52s-.17-5.29,2.94-6.42c2-.72,2.68-1.89,1.64-3.81s-2.6-1.48-4.23-.7a10.8,10.8,0,0,0-5,14.37c3,6.33,10.91,8.74,18.64,5.67,6.94-2.77,8.41-4.84,8.51-12.21C302,482,302,478.2,302,474.38Zm-56.26-1.68c0-3.15.16-6.32-.06-9.46-.15-2.22,1.13-5.93-2.56-5.87-3.85.07-2.16,3.87-2.26,6-.27,6-.14,12-.08,18,0,3-1.2,5.14-4.17,5-2.7-.11-2.24-2.8-2.34-4.72s0-3.66-.08-5.49,0-3.55-2.45-3.45-2.43,1.87-2.47,3.58c-.05,2.83,0,5.66-.1,8.49-.06,2.15.2,4.45-.48,6.4-1.33,3.8-4.5,5-8.38,4.67-1.64-.15-3,.32-3.26,2.25-.16,1.45.76,2,2,2.33,4.44,1.19,10.9-1.06,13.06-5,1.81-3.33,3.72-5.32,8-4.25s6.07-1,5.67-5.48c-.38-4.33-.08-8.67-.07-13ZM466,417.32h0c0-5.66.09-11.31-.05-17,0-1.82,1.15-4.31-2.78-4.4C459.38,395.83,460,398,460,400c-.05,11.81,0,23.62-.07,35.42,0,2.22.29,3.43,2.87,3.46,2.78,0,3.26-1.2,3.19-3.68C465.81,429.29,466,423.3,466,417.32Zm-221.16.06h0v18c0,2.06.13,3.58,2.83,3.57,2.41,0,3.12-.94,3.1-3.29-.11-12.16-.1-24.31-.05-36.47,0-2.23-.45-3.19-3.07-3.2-2.86,0-2.84,1.42-2.83,3.43,0,6,0,12,0,18ZM254,473.89V460.45c0-1.59-.35-3.1-2.35-3.17-2.23-.08-2.16,1.66-2.16,3.13V487.3c0,1.42-.37,3.24,1.87,3.39,2.41.16,2.58-1.62,2.59-3.35C254,482.86,254,478.38,254,473.89ZM302,400.54c0-3.75-1.92-4.83-5-3.16-1.65.88-2.57,1.4-4.19-.08a2.8,2.8,0,0,0-4,0,2.74,2.74,0,0,0-.4.5c-.85,1.26-2,2.57-.7,4.45a3.52,3.52,0,0,0,4.74,1.33c1.54-.68,2.88-1.87,4.29,0,1,1.36,2,1.06,3.39.46C302,403.26,302.05,402,302,400.54ZM126,458c-.46-.07-1.11-.2-1.76-.25-1.47-.1-3.06-.36-3.86,1.35a3.21,3.21,0,0,0,.1,3.3c1,1.46,2.34,1.45,3.87.58a3,3,0,0,1,2.37-.2c3,1.33,5.9.77,5.85-2.53s-3.4-2.73-5.89-2.3Zm16,40.37c1.42,5.14,6,.52,8.76,2.29,1.22.78,3.46-.73,3.19-2.76-.9-6.76-6.56.59-9.11-2.86-.7-1-2.84.93-2.85,3.28Zm202.81-48.92c2.34-.21,3.79-1.37,3.92-3.7a3.38,3.38,0,0,0-2.85-3.84l-.15,0c-2.05-.17-3.93.68-4,3.3a3.76,3.76,0,0,0,3.07,4.21ZM197,456.54c-2,.25-3.14,1-3.13,2.84s.92,3.21,2.63,2.78a13.69,13.69,0,0,1,6.14.07,2.56,2.56,0,0,0,3.14-2.9c-.15-2-1.77-3.19-3.4-2.62C200.27,457.48,198.52,458.17,197,456.54Zm3.52-54.94c-.16-2.47-1.14-4-3.32-3.86a3.53,3.53,0,0,0-3.59,3.47,3.24,3.24,0,0,0,0,.44,3.29,3.29,0,0,0,3.15,3.42h.3a3.13,3.13,0,0,0,3.45-2.78,3.53,3.53,0,0,0,0-.65Zm-83.84,49.57c2.61-.06,4.18-1.29,4.35-3.52a3.48,3.48,0,0,0-2.9-4,3.64,3.64,0,0,0-.57,0,3.75,3.75,0,0,0-4.28,3.74,3.56,3.56,0,0,0,3.31,3.81h.1Zm-23-50.86c-.39-1.73-.75-3.73-3.44-3.69a3.4,3.4,0,0,0-3.53,3.27V400c-.18,2.19.86,3.78,3.43,3.8,2.2.05,3.25-1.13,3.51-3.47Zm8.28,0c-.4-1.9-.92-3.58-3.32-3.63-2.56-.06-3.59,1.49-3.72,3.67a3,3,0,0,0,2.41,3.49,3.15,3.15,0,0,0,.81,0c2.41.14,3.52-1.29,3.79-3.52Zm23.68,43.3a3.49,3.49,0,0,0-3.07,3.84c0,2.11,1,3.69,3.19,3.6a3.42,3.42,0,0,0,3.51-3.33,3.78,3.78,0,0,0-.05-.67,3.62,3.62,0,0,0-3.61-3.39Z" transform="translate(0.02 0)"/><path class="cls-2" d="M257.86,304.54C244,322.8,223.64,329,200.39,321.67c-17-5.36-31.72-14.78-45.77-25.53-12.4-9.49-23.66-20.18-34.52-31.3-31.29-32-58.29-67.46-82.95-104.74C26,143.17,14.73,126.19,6.81,107.44-1.35,88.11-4,68.59,9.21,50c6.41-9,15.13-15.35,24.92-20.21,4.64-2.3,9.52-1.41,14.07.47A56.36,56.36,0,0,1,74.11,51.38c2.38,3.54,2.32,7.91,3.43,11.89,9.23,33,23.82,63.71,38.22,94.57,4.83,10.36,9.45,20.84,15.17,30.73,11.58,20,21.7,40.87,34.6,60,9.44,14,18.79,28.24,30.44,40.68,7.45,8,15.57,15,26,18.76a33.75,33.75,0,0,0,30.63-3.16c1.64-1,3-2.58,5.15-2.56C258.5,303,258,303.79,257.86,304.54Z" transform="translate(0.02 0)"/><path class="cls-3" d="M180.84,256.8c10.56,4.23,19.65,9.89,30.73,9.39a43.4,43.4,0,0,0,23.19-8c9.81-6.82,17.35-15.8,24.53-25.42a195.16,195.16,0,0,0,17.8-28c6.53-12.84,12.08-26.18,18.75-38.93,9.05-17.3,17.15-35.31,31.7-49.06,9.23-8.74,20.62-12.27,33-13.18,8.53-.62,15.12,2.66,20.19,9.45a38.61,38.61,0,0,1,6,13.58c3.53,13.42,4.14,27.1,3,41.63-3.16-1.86-4.21-4.54-5.78-6.68-3.73-5.08-7.21-10.29-12.24-14.31-10-8-20.55-4.36-27.9,2.44-12.57,11.62-20.48,26.5-27.76,41.6-10.37,21.5-19.83,43.45-30.24,64.92-5.73,11.8-12.81,22.86-22.13,32.36-11.2,11.41-25.12,18.91-42.05,11.71-9.11-3.88-16.13-10.45-22.65-17.58C192.06,275.07,185.79,267,180.84,256.8Z" transform="translate(0.02 0)"/><path class="cls-3" d="M254,0c29.89.56,58.4,7.33,86.44,17.55C358.2,24.06,373.77,34,389.32,44.23a36.15,36.15,0,0,1,10,10.1c1.61,2.43,3.75,3.54,5.78,5,4.78,3.41,9.27,6.94,10.9,13a2,2,0,0,0,.17.46c.94,1.56,3.75,2.87,1.81,4.93s-4.66,1-7,.11c-5.37-1.94-10-5.14-14.77-8.13-6.91-4.27-13-9.63-20.14-13.55-11.2-6.19-22.38-12.43-33.58-18.63a10.93,10.93,0,0,0-3.6-1.66c-10.6-1.14-19.82-6.77-30-9.2-15.32-3.65-30.7-7.32-46.62-7.26-8.83,0-17.72-.53-26.47.31s-17.37,3.39-26.12,4.65a146.43,146.43,0,0,0-25.43,6.34,222,222,0,0,0-43.06,19.29c-7.09,4.15-14.26,8.18-21,12.85-7.52,5.19-13,12.64-20,18.53-.89.75-1.66,1.63-2.52,2.4-4,3.58-5.1,3.53-6.56-1.47-.87-3-1.84-6-2.5-9.07a5.72,5.72,0,0,1,1.54-5.84,196.93,196.93,0,0,1,27.59-23.58,222.86,222.86,0,0,1,25.89-16.12,240.78,240.78,0,0,1,38.34-16,226.72,226.72,0,0,1,39.19-8.92C232.07,1.33,243-.2,254,0Z" transform="translate(0.02 0)"/><path class="cls-2" d="M327.75,184.7c5.1-9.51,9.45-17.9,16.15-24.74,11.73-12,22.54-11.1,32.08,2.82,9,13.11,14.64,27.94,21.28,42.24,8.21,17.64,16.42,35.28,28.66,50.62,5.09,6.37,10.77,12.21,18,16.26,15.37,8.62,30.05,6,44.32-2.83,1.39-.86,2.76-1.75,4.11-2.6,1.69,1.29.89,2.72.34,3.7-8,14.14-23.61,27.49-42.68,24.53-12.71-2-22.81-8.92-30.81-18.75A450.43,450.43,0,0,1,371,202.31c-3.46-6.52-7.48-12.54-13.24-17.24-7.8-6.35-16.25-6.93-25.2-2.69C331.28,182.94,330.12,183.54,327.75,184.7Z" transform="translate(0.02 0)"/><path class="cls-3" d="M167.22,211.47c.22-14.21,4.78-25.37,17.53-33.05-.07,4.66-1.56,8.65.69,12.33,3.37,5.49,10.63,7.15,17.76,4.06,6.51-2.82,11.52-7.64,16.84-12.14,8-6.77,8.33-8.23,17.56.63,16.92,16.25,15.06,43.07-2.52,58.36-10.83,9.41-24.37,12.5-40.26,7.23,12.4-4.4,19.82-12,20.7-24.31.5-6.87-2.17-13-7-18.12-5.89-6.29-13-8.59-21.59-7.89C178.15,199.29,172.89,205.17,167.22,211.47Z" transform="translate(0.02 0)"/><path class="cls-3" d="M415.89,383.6c4.87-4.54,7.72-9,10.89-13.24a8.34,8.34,0,0,1,7.54-3.78c11,.31,22-.35,32.95.57a12.58,12.58,0,0,1,3.46.32c3.53,1.37,7.7,2.41,7.14,7.52s-4.06,6-8.34,5.68c-1-.06-2,0-3,0-2.9.1-4.67-.41-2.85-3.93.51-1,2.41-2.81.1-3.73-1.79-.72-4.26-.91-5.56.91a13.68,13.68,0,0,0-2.68,9.37c.31,3,3.17,2.8,5.12,2.6,7.67-.76,15.29.6,22.94.27,1.32-.06,3.38-.87,3.87,1s-1.59,2.63-2.94,3.5c-1.77,1.15-3.81,1.11-5.8,1.12-7.33,0-14.66.14-22,0-14-.22-17.83-5.25-14.45-18.78-4.69-1-8.64-.75-11.53,4-2.05,3.36-4.84,6.28-7.27,9.43-4.46,5.79-14.36,7.56-19.83,3.37a1.65,1.65,0,0,0-2.06-.18,37.67,37.67,0,0,1-26.34.35c-1.51-.52-2.45.09-3.67.7-6.35,3.18-11.31,2.38-15-2.27-2.71-3.36-2-10.36,1.52-14.81A18.08,18.08,0,0,1,372,366.82c6.15-.27,12.32-.13,18.48-.21,3.51,0,4.38,1.54,3.2,4.73-1.33,3.58-2.53,7.2-3.73,10.83-.29.9-.77,2.52-.45,2.73,3.3,2.18,7,1.08,10.6,1,2.78,0,3-2.12,2.89-4.27-.21-3.81-.32-7.64-.71-11.45-.23-2.31.46-3.53,2.85-3.59a5.6,5.6,0,0,0,1-.06c9.65-.75,9.75-.66,9.76,8.86Zm-40-10.83c-2.06,0-4.07-.23-4.79,2.46-.78,2.95-2.94,5.72-1.3,8.94.74,1.45,2.38,1.72,3.88,1.72s1.81-1.06,2.2-2.25a74.61,74.61,0,0,1,2.69-7.42c1.32-3.11.08-3.88-2.71-3.45Z" transform="translate(0.02 0)"/><path class="cls-3" d="M327.79,361.54A125.64,125.64,0,0,0,312,384.24c-2.65,4.85-6.25,7.88-12.26,7.68-3.24-.11-4-1.3-3.72-4.19,1.12-10.74,2-21.51,3.28-32.24.66-5.69.61-6-5.07-6-2.33,0-4.66-.05-7,0-3.69.13-3.78-1.44-2.36-4.27,1.72-3.4,3.87-5.57,8.09-5.25,3.8.3,7.65,0,11.47.07,5.5.11,7.8,2.5,7.83,8a151,151,0,0,1-1.69,18.87c-.17,1.28-.64,2.57.4,4.32,5.38-8.31,10.72-16.34,15.76-24.54a18.4,18.4,0,0,1,3.9-5,8,8,0,0,1,8-1.27c2.57,1,1.4,3.77,1.43,5.77.12,8,.05,15.91,1,24.23l6.77-12.31c2.8-5.1,5.55-10.21,8.41-15.27a6,6,0,0,1,2.34-2.46c1.86-.89,4.28-1,5.73.22,2,1.67-.11,3.76-.91,5.24-5.42,10.09-11.1,20-16.68,30q-3,5.43-6,10.88a9.58,9.58,0,0,1-4.13,4.2c-5.54,2.79-8.72.93-8.73-5.13Q327.77,373.69,327.79,361.54Z" transform="translate(0.02 0)"/><path class="cls-4" d="M361.66,485.73c4.83,0,9.66.07,14.49,0,2.93-.06,6.06-.75,6.12-4.26s-2.75-4.58-5.92-4.57c-6.15,0-12.31.12-18.46,0-1.56,0-4.2.78-4.15-2.13,0-2.07,1.32-4.32,3.53-4.22,8.56.39,17.22-1.66,25.67,1.15,4.38,1.46,6.24,4.45,6.28,9,0,1.7-1.2,4.75,2,4.61,2.39-.11,2.35-2.88,2.3-4.85-.17-6.14.62-12.29-.56-18.43-.42-2.17-.83-5.2,2.43-5.59s3.54,2.81,3.55,4.9c0,6.47-.35,12.94-.64,19.41-.17,3.75,2.05,5,5.27,5.21,2.73.14,4.27-.88,4.21-4-.13-7.15,0-14.31.11-21.47,0-1.63-.67-4.15,2.24-4.07,2.56.06,3.09,2,3.09,4.25,0,9-.08,18,.06,27,.06,3.46-2.34,4.74-4.67,4.33-8.76-1.54-17.53-.47-26.27-.66-15.14-.34-30.3,0-45.44-.07-3,0-4.8.6-6.21,3.57-2.53,5.32-12.24,8.17-17.51,5.64a3.45,3.45,0,0,1-1.93-3.25c0-2.06,1.85-1.43,3-1.51,3-.18,6-.11,9-.42a2.56,2.56,0,0,0,2.45-2.66v0c-.18-1.61-1.81-1.14-2.85-1.17-3.66-.11-7.34-.24-11,0-3,.17-4.77-1.4-5.78-3.79-3.85-9.08.91-20.42,12.24-20.08,9.91.3,14,3.58,14.92,13.11.16,1.69.1,3.5,2.46,3.57,2.9.09,2.44-2.17,2.46-3.89.06-6.15,0-12.31,0-18.47,0-2-.66-5,2.62-4.89s2.3,3.14,2.34,5.05c.13,6.16.32,12.34-.1,18.47-.31,4.59,1.38,5.82,5.67,5.48S357.33,485.73,361.66,485.73Zm-41.85,0c2.36-.92,6.61,1.93,7.94-1.72,1.41-3.87-.15-7.94-4-10.3a10.12,10.12,0,0,0-9.57-.77c-4,1.79-4.92,5.52-4.43,9.57s3.63,3.07,6.16,3.21C317.06,485.78,318.22,485.73,319.81,485.73Z" transform="translate(0.02 0)"/><path class="cls-2" d="M420.19,430.75c-2.47,8.5-.23,8.19-11.07,8-4.16-.06-6.64.73-8.14,5.12S395.61,451,390.54,451c-3,0-6,0-9,.1a4.22,4.22,0,0,1-4.36-2.55c-1.35-2.57-1.6-4,2-3.81,3.32.15,6.66.1,10,0a8.72,8.72,0,0,0,3.84-.68c1.6-.86,3.24-2.4,2.85-4.27s-2.58-.92-3.89-1c-4.66-.16-9.33-.09-14,0-3.82.1-6.65-1.68-7.87-5-2.25-6.16-2.61-12.58,1.71-18,5.09-6.44,12.22-7.74,19.85-5.92,6.64,1.58,10.47,6.1,11.55,12.87a40.1,40.1,0,0,1,.44,4c.35,5.7,2.48,7.12,8.08,5.75,2.56-.63,2-2.7,2.56-4.29a13.34,13.34,0,0,1,11.14-9.52c4.74-.76,8.87.55,11.83,4.7,1.22,1.71,2.21,3.67,2,5.54-.44,3.2.74,4.62,3.63,3.94,2.51-.59,6.69,1.35,6.49-4.3-.34-9.65,0-19.33-.06-29,0-2.27.08-3.59,3.13-3.61s2.58,1.71,2.58,3.5c0,12-.09,24,0,36,0,2.58-.51,3.72-3.27,3.44a65.92,65.92,0,0,0-7.95-.24c-3.41.1-7-.36-9.54,2.93-1.73,2.2-4,2.1-6.12.28-3.08-2.69-9-3.42-6.75-9.81,3-.51,4.67,2,7,3,3.05,1.36,4.68.58,4.91-2.91.25-3.83-1.11-6.42-5.1-7.09C423.71,424.3,421,426.11,420.19,430.75ZM387,432.59h3c9.06,0,10.15-1.59,7.1-10.3-.17-.47-.26-1-.46-1.42-2.09-4.72-9.46-7.58-14.9-5.79-5.22,1.72-9,8.35-7.48,13.53.65,2.3,1.83,4.19,4.82,4C381.67,432.45,384.33,432.59,387,432.59Z" transform="translate(0.02 0)"/><path class="cls-2" d="M176.46,396.54c.94,4.61-.82,7.2-5,8.81-5.65,2.16-11.14,4.76-16.69,7.18l.17,1.51h7.93a73.19,73.19,0,0,1,7.48.25c7.87.78,11.67,4.93,11.4,12.25-.3,8.21-4.24,12.12-12.52,12.15q-40.46.13-80.9.16c-11,0-16.49-9.27-11.14-18.9,4.85-8.73,13.89-11.59,23.39-7.91,1.79.7,4.36,3.3,6.7-.62,1.19-2,4.64,0,4.69,2.8.07,5,.15,10,0,15-.07,2.52.63,3.43,3.32,3.5,7.7.19,7.7.32,7.7-7.2,0-2,0-4-.06-6-.09-2.37,1.38-2.61,3.23-2.72,2.12-.12,3.16.65,3,2.83v1c.09,3.8-1.44,8.73.83,11.07,2.53,2.6,7.56.83,11.48.89,9,.13,18,.08,27,0,5.4,0,7.51-1.77,7.33-5.94-.19-4.65-3.17-6.2-7.38-6.21l-29-.11c-2.13,0-4.74.28-5.42-2.24-.74-2.72,1.83-3.57,3.78-4.46q18.12-8.26,36.29-16.45A15.33,15.33,0,0,1,176.46,396.54ZM94.64,432.68a60.55,60.55,0,0,1,7,.05c4,.46,4.82-1.47,4.65-4.94-.28-5.79-2.64-9.27-8.07-11.18-5.15-1.81-11.75-.46-14.65,3.38a10,10,0,0,0-1.68,9.89c1.32,3.4,4.53,2.75,7.3,2.8,1.76,0,3.63,0,5.45,0Z" transform="translate(0.02 0)"/><path class="cls-2" d="M339.84,233.31a21.53,21.53,0,0,1-22-21c-.18-12.23,9.32-21.76,21.34-22.33s21.62,10.94,21.93,21.24a21.2,21.2,0,0,1-20.29,22.07C340.49,233.31,340.17,233.31,339.84,233.31Z" transform="translate(0.02 0)"/><path class="cls-2" d="M78.07,392h-14c-2.69,0-5.13.5-5.1-3.9s2.35-4.22,5.36-4.18c7.33.09,14.66,0,22,0,2.88,0,5.84.12,6.66-3.66.85-3.95-.88-6.51-4.51-7.73-6.13-2.07-12.24-4.31-18.52-5.81C58.34,364,57.25,356.09,59.18,346.35c.88-4.4,4.37-7,9.11-7.12,10-.14,20-.07,30-.25,3.14-.06,3,1.8,2.87,3.88s.71,4.38-3,4.25c-7.45-.26-14.91-.15-22.36-.25-3.18,0-6.22.26-6.93,4.1-.74,4,1.54,6.18,5.13,7.32,6.81,2.16,13.66,4.22,20.41,6.56,9.14,3.18,12.72,15.37,6.89,23.1a9.42,9.42,0,0,1-7.76,3.85c-5.16.06-10.33,0-15.49,0Z" transform="translate(0.02 0)"/><path class="cls-2" d="M320.7,438.92c-10.5,0-21-.19-31.48.08-5.19.13-9.44-1.55-11.81-5.89-2.56-4.67-1.71-9.71,1.19-14.21,5.27-8.16,14.5-10.84,23.6-7,1.8.75,3.29,3,5.49-.44,1.47-2.26,4.95-.15,5,3,.07,4.66.16,9.33,0,14-.14,3.29,1.16,4.26,4.36,4.21,11.82-.17,23.65-.17,35.47-.09,4.07,0,6.94-1.24,7.21-5.69.22-3.76-2.62-6.37-7.25-6.46-8.82-.15-17.65,0-26.48-.15-1.32,0-4,1.32-3.68-1.52.19-1.86.76-4.71,3.63-4.69,10,.07,20-.7,29.95.43,7.11.81,10.34,5.51,9.78,13.11-.53,7.11-4.48,11.09-11.48,11.16-11.16.11-22.32,0-33.47,0Zm-25.29-6.23h0c2.49,0,5-.18,7.47,0,3.44.31,4.26-1.38,4.17-4.42-.15-5.42-2.67-9.7-7.19-11.44-5.4-2.07-10.59-1.51-14.84,2.46a9.36,9.36,0,0,0-2.59,10.07c1.21,3.76,4.53,3.25,7.5,3.27Z" transform="translate(0.02 0)"/><path class="cls-4" d="M197.83,491.18c-7.37.14-14.85-.77-21.69,3.33-2.52,1.51-5.22-.49-6.72-2.07-2-2.11-3.84-1.64-6.18-1.6-14.47.24-29,.51-43.43.21-7.39-.16-10.74-7.83-7.07-14.89s11.19-9.76,18.65-6.94c1.75.66,3.25,2.28,5.39-.26,1.28-1.51,3.42-.27,3.45,2.29,0,3.5.24,7,.08,10.49-.15,3.08.79,4.68,4.13,4.69s4.86-1.44,4.61-4.83a50.27,50.27,0,0,1,0-5.49c.07-1.49.73-2.64,2.39-2.6a2.4,2.4,0,0,1,2.51,2.28,1.13,1.13,0,0,1,0,.26c.06,2,0,4,0,6,0,1.7-.15,3.5,2.31,3.57,2,.07,4,.32,4.63-2.49,1.2-5.14,4.31-8.27,9.91-7.79,4.92.43,8.85,2.61,10.1,7.73.59,2.44,1.82,2.62,3.9,2.58,6-.12,12,0,18,0,2.37,0,5.47,1.23,6.7-1.71,1.47-3.51.14-7-2.31-9.68-3.5-3.84-11.53-3.41-14.92.58-.75.88-1.52,1.9-1.15,3.15.44,1.49,1.82,1.22,2.93,1.24,2.83.06,5.66,0,8.49.06,1.17,0,3-.53,2.94,1.58,0,1.33-.81,2.82-2.34,2.87-5.48.15-11,.14-16.45.08-1.16,0-1.61-1.09-1.65-2.17-.11-3.33-.19-6.65-.26-10,0-2,.94-3,2.89-3.39,6.58-1.36,13.23-2,19.75-.26,3.45.9,5.66,3.62,6.87,7.27,1.31,4,1.09,7.94.83,11.86-.18,2.72-2.51,4.08-5.36,4.07C205.82,491.17,201.82,491.18,197.83,491.18Zm-71.14-5.4a30.59,30.59,0,0,1,4.49,0c4.86.74,5.23-2.06,4.5-5.63-1.26-6.11-9.76-9.27-15.4-5.75-3.16,2-4.61,5.05-3.78,8.52s4,2.82,6.69,2.82Zm49.15-1.1c-.21-3.27-2.44-4.55-5.24-4.72-2.62-.16-4.72,2.72-4.21,4,1.05,2.57,4,4.1,7,4.3,2.19.11,2.47-1.81,2.5-3.58Z" transform="translate(0.02 0)"/><path class="cls-2" d="M137.44,351.89c4.18.22,11.35-.7,18.47.39,6.36,1,9.81,4.6,10,11,.26,8.48,0,17,.15,25.46.08,4-2.73,2.89-4.82,3.08-2.42.23-4.15-.19-4.07-3.39.16-7.49,0-15,0-22.46,0-2.62-.41-5.23-3-6.36-3.6-1.56-7.52-1.39-11.27-.61-1.43.3-.87,2.31-.87,3.59,0,8.32-.16,16.64.08,25,.1,3.56-1.21,4.52-4.57,4.56-3.56.05-4.53-1.28-4.44-4.71.22-8.31,0-16.64.1-25,0-2.72-.68-3.9-3.61-3.85-14.34.23-11.4-1.53-11.67,11-.13,6.32-.19,12.66,0,19,.15,4.21-2.73,3.28-5,3.49-2.53.24-4.06-.43-4-3.5.18-9.82.21-19.64.15-29.45,0-4.79,2.31-7.12,6.92-7.19C122.16,351.81,128.32,351.89,137.44,351.89Z" transform="translate(0.02 0)"/><path class="cls-3" d="M466.2,188.71c1.82,1.37,4.88,0,5.79,2.56.37,1,.91.92,1.81.27,3.33-2.39,6.64-.93,7.79,2.93,3.22,10.9,2,22.11,2.37,33.18.31,9.47.11,19-.17,28.45-.26,8.44-1.07,8.9-8.86,11.35-4.33,1.36-6,1.17-5.41-4.13,1.06-10.38,2.53-20.74,2.29-31.27a193.33,193.33,0,0,0-5.11-40.51C466.47,190.63,466.36,189.66,466.2,188.71Z" transform="translate(0.02 0)"/><path class="cls-2" d="M239.83,417.86c0,5.66-.15,11.33.06,17,.1,2.88-.36,4.13-3.73,4.08-14.56-.18-29.13-.11-43.7,0a4.49,4.49,0,0,1-4.64-2.88c-1.21-2.48-1.13-3.57,2.1-3.48,7,.19,14,.07,21,.08,3.15,0,6.52.56,7.67-3.68,1.3-4.8-.48-10.24-4.14-12.34-7.22-4.15-15.26-2-19.26,5.29-.57,1-1,2.1-1.54,3.14-1.17,2.26-3.4,1.37-4.91,1.09-2.21-.4-1.05-2.36-.72-3.69a19.06,19.06,0,0,1,21.78-13.93c10.36,1.77,16.34,9.38,15.27,19.85-.26,2.55-.66,5,2.66,4.67,2.69-.31,6.79.84,6.49-4.85-.49-9.46-.14-19-.13-28.46,0-1.93-.54-3.86,2.86-3.8s2.88,1.92,2.89,3.9Q239.84,408.88,239.83,417.86Z" transform="translate(0.02 0)"/><path class="cls-2" d="M208,374.54c0,3.66-.06,7.32,0,11s-1.58,6.06-5.49,6.23A186.75,186.75,0,0,1,179,391.7c-4.25-.34-6.51-2.8-7.38-6.86a24.78,24.78,0,0,1-.22-9.4c.9-5.42,3.83-8.11,9.42-8.38,4.32-.2,8.66.1,13-.16,1.9-.12,5.2,1.68,5.2-2.43,0-3.48-1.75-5.68-5.47-5.72h-15c-2.36,0-5,.85-4.89-3.41.11-4.09,2.57-3.44,5-3.43,5.82,0,11.64,0,17.46,0,7.71.1,11.53,3.91,11.74,11.67C208,367.19,208,370.85,208,374.54Zm-17-.79h0c-2.17,0-4.34-.1-6.5,0-2.5.15-4,1.56-4.16,4.1s-.69,5.6,2.22,6.57c5,1.65,10.17.88,15.28.3.44-.05.94-.88,1.15-1.45,2.26-6-.23-9.62-6.5-9.59Z" transform="translate(0.02 0)"/><path class="cls-3" d="M168,225.13c-1.56-11.21,11.79-21.11,20.12-21,12,.16,20.93,8.85,20.86,20.73-.06,10.85-9.42,19.84-20.7,19.88C176.18,244.8,167.64,236.34,168,225.13Zm18.11,14.61c5.93,0,12.66-6.75,12.72-12.74.06-6.36-6.35-12.52-13-12.52s-12.62,6.06-12.7,12.8c-.07,6.5,6.14,12.46,13,12.46Z" transform="translate(0.02 0)"/><path class="cls-2" d="M258.59,392c-11.39-.14-15.33-4.16-15.35-15.45,0-4.65-.06-9.3,0-14,0-2.2-.1-4.09-3-3.92-2.57.15-2.41-1.68-2.4-3.36s-.44-3.67,2.22-3.45c2.92.24,3.29-1.45,3.2-3.71v-4c0-4.7,3.3-6.8,7.65-5,1.2.5,1.29,1.33,1.27,2.36s0,2.33,0,3.49c0,6.77,0,6.71,6.75,6.84,1.86,0,4.54-1.23,4.63,2.6.07,3-.3,4.5-3.94,4.44-7.42-.12-7.43.12-7.46,7.44v10.47c.07,4.6,2,7.71,7,7.9,3.14.12,4.82,1,4.47,4.66C263.22,393.54,260.18,391.3,258.59,392Z" transform="translate(0.02 0)"/><path class="cls-3" d="M207.25,170.13a35.9,35.9,0,0,1,13.09,2.69c2.8,1.16,3.48,2.7,1,4.57-6.08,4.53-11,10.5-17.83,14.09-4.92,2.61-13.31.75-15.36-3.19-2.62-5,.76-13,6.52-15.7A27.94,27.94,0,0,1,207.25,170.13Z" transform="translate(0.02 0)"/><path class="cls-2" d="M230.69,351.83c2.58.15,6-1.2,5.5,3.8-.24,2.32-.82,3-3.22,3.13-7.91.46-10,2.89-10,11,0,6.33-.23,12.66,0,19,.14,4-2.47,3.09-4.66,3.22s-4.31.33-4.23-3.1c.16-8-.19-16,.13-24C214.51,355.9,219.63,352.06,230.69,351.83Z" transform="translate(0.02 0)"/><path class="cls-4" d="M302,474.38v11.46c-.1,7.37-1.57,9.44-8.51,12.21-7.73,3.07-15.65.66-18.64-5.67a10.8,10.8,0,0,1,5-14.37c1.63-.78,3.14-1.33,4.23.7s.33,3.09-1.64,3.81c-3.11,1.13-3.46,3.43-2.94,6.42s2.67,4,5.17,4.52c7.33,1.43,12.16-2.58,12.19-10.15s-.12-14.95-.08-22.42c0-1.68-.49-4,2.33-4.11s2.87,2.07,2.87,4.14Q302,467.66,302,474.38Z" transform="translate(0.02 0)"/><path class="cls-4" d="M245.65,472.71c0,4.32-.3,8.66.08,13,.4,4.53-1.46,6.53-5.67,5.48s-6.19.92-8,4.25c-2.16,3.95-8.62,6.2-13.06,5-1.27-.34-2.19-.88-2-2.33.23-1.93,1.62-2.4,3.26-2.25,3.88.35,7-.87,8.38-4.67.68-2,.42-4.25.48-6.4.08-2.83,0-5.66.1-8.49,0-1.71.14-3.49,2.47-3.58,2.49-.1,2.4,1.77,2.45,3.45s0,3.66.08,5.49-.36,4.61,2.34,4.72c3,.12,4.21-2.06,4.17-5-.06-6-.19-12,.08-18,.1-2.12-1.59-5.92,2.26-6,3.69-.06,2.41,3.65,2.56,5.87C245.82,466.38,245.66,469.54,245.65,472.71Z" transform="translate(0.02 0)"/><path class="cls-2" d="M466,417.32c0,6-.12,12,.06,18,.07,2.48-.41,3.72-3.19,3.68-2.58,0-2.89-1.24-2.87-3.46.1-11.8,0-23.61.07-35.42,0-2-.61-4.21,3.13-4.12,3.93.09,2.74,2.58,2.78,4.4.14,5.65.05,11.3.05,17Z" transform="translate(0.02 0)"/><path class="cls-2" d="M244.77,417.38v-18c0-2,0-3.44,2.83-3.43,2.62,0,3.08,1,3.07,3.2,0,12.16-.06,24.31.05,36.47,0,2.35-.69,3.27-3.1,3.29-2.7,0-2.86-1.51-2.83-3.57.06-6,0-12,0-18Z" transform="translate(0.02 0)"/><path class="cls-4" d="M254,473.89v13.45c0,1.73-.18,3.51-2.59,3.35-2.24-.15-1.87-2-1.87-3.39q-.08-13.44,0-26.89c0-1.47-.07-3.21,2.16-3.13,2,.07,2.34,1.58,2.35,3.17C254,464.93,254,469.41,254,473.89Z" transform="translate(0.02 0)"/><path class="cls-2" d="M302,400.48c0,1.51-.05,2.78-1.84,3.54-1.4.6-2.39.9-3.39-.46-1.41-1.92-2.75-.73-4.29,0a3.52,3.52,0,0,1-4.74-1.33c-1.33-1.88-.15-3.19.7-4.45a2.8,2.8,0,0,1,3.86-.88,2.74,2.74,0,0,1,.5.4c1.62,1.48,2.54,1,4.19.08C300.09,395.66,302,396.74,302,400.48Z" transform="translate(0.02 0)"/><path class="cls-4" d="M126.05,457.93h.68c2.49-.43,5.84-1,5.89,2.3s-2.85,3.86-5.85,2.53a3,3,0,0,0-2.37.2c-1.53.87-2.83.88-3.87-.58a3.21,3.21,0,0,1-.1-3.3c.8-1.71,2.39-1.45,3.86-1.35A11.29,11.29,0,0,1,126.05,457.93Z" transform="translate(0.02 0)"/><path class="cls-4" d="M142,498.3c0-2.35,2.15-4.26,2.84-3.33,2.55,3.45,8.21-3.9,9.11,2.86.27,2-2,3.54-3.19,2.76C148,498.82,143.42,503.44,142,498.3Z" transform="translate(0.02 0)"/><path class="cls-2" d="M344.81,449.38a3.76,3.76,0,0,1-3.15-4.26c.11-2.62,2-3.47,4-3.3a3.38,3.38,0,0,1,3,3.71c0,.05,0,.1,0,.15C348.6,448,347.15,449.17,344.81,449.38Z" transform="translate(0.02 0)"/><path class="cls-4" d="M197,456.54c1.56,1.59,3.31.9,5.38.17,1.63-.57,3.25.6,3.4,2.62a2.56,2.56,0,0,1-3.14,2.9,13.69,13.69,0,0,0-6.14-.07c-1.71.43-2.62-1-2.63-2.78S195,456.83,197,456.54Z" transform="translate(0.02 0)"/><path class="cls-2" d="M200.48,401.64a3.13,3.13,0,0,1-2.75,3.47,4,4,0,0,1-.69,0,3.29,3.29,0,0,1-3.45-3.12v-.3a3.53,3.53,0,0,1,3.13-3.89,3.24,3.24,0,0,1,.44,0C199.34,397.64,200.32,399.17,200.48,401.64Z" transform="translate(0.02 0)"/><path class="cls-2" d="M116.64,451.21a3.57,3.57,0,0,1-3.4-3.73v-.05a3.73,3.73,0,0,1,4.28-3.74,3.47,3.47,0,0,1,3.51,3.43,3.64,3.64,0,0,1,0,.57C120.82,449.92,119.25,451.15,116.64,451.21Z" transform="translate(0.02 0)"/><path class="cls-2" d="M93.6,400.35c-.26,2.34-1.31,3.52-3.54,3.51-2.57,0-3.61-1.61-3.43-3.8a3.4,3.4,0,0,1,3.4-3.4h.13C92.85,396.62,93.21,398.62,93.6,400.35Z" transform="translate(0.02 0)"/><path class="cls-2" d="M101.88,400.36c-.27,2.23-1.38,3.66-3.82,3.57a3,3,0,0,1-3.26-2.72,3.15,3.15,0,0,1,0-.81c.13-2.18,1.16-3.73,3.72-3.67C101,396.78,101.48,398.46,101.88,400.36Z" transform="translate(0.02 0)"/><path class="cls-2" d="M125.56,443.66c2.11.22,3.42,1.37,3.58,3.45a3.42,3.42,0,0,1-2.79,3.95,3,3,0,0,1-.67.05c-2.15.09-3.16-1.49-3.19-3.6A3.49,3.49,0,0,1,125.56,443.66Z" transform="translate(0.02 0)"/><path class="cls-3" d="M257.86,304.54c0-.74.64-1.5-.1-2.2l.09.14c1.62-.3.66-.91.18-1.46a20.82,20.82,0,0,1,5.87-5.11c-.79,4.11-4.75,6.07-5.31,9.79Z" transform="translate(0.02 0)"/><path class="cls-2" d="M258,301c.48.55,1.44,1.16-.18,1.46a1,1,0,0,1,.12-1.41Z" transform="translate(0.02 0)"/><path class="cls-1" d="M375.86,372.77c2.79-.43,4,.34,2.68,3.45a74.61,74.61,0,0,0-2.69,7.42c-.39,1.19-.81,2.25-2.2,2.25s-3.14-.27-3.88-1.72c-1.64-3.22.52-6,1.3-8.94C371.79,372.54,373.8,372.8,375.86,372.77Z" transform="translate(0.02 0)"/><path class="cls-1" d="M319.81,485.73H315.9c-2.53-.14-5.69.71-6.16-3.21s.43-7.78,4.43-9.57a10.12,10.12,0,0,1,9.57.77c3.86,2.36,5.42,6.43,4,10.3C326.42,487.66,322.17,484.81,319.81,485.73Z" transform="translate(0.02 0)"/><path class="cls-1" d="M420.19,430.75c.73-4.64,3.52-6.45,8-5.69,4,.67,5.35,3.26,5.1,7.09-.23,3.49-1.86,4.27-4.91,2.91-2.31-1-4-3.51-7-3Z" transform="translate(0.02 0)"/><path class="cls-1" d="M94.64,432.69H89.16c-2.77,0-6,.6-7.3-2.8A10,10,0,0,1,83.54,420c2.9-3.84,9.5-5.19,14.65-3.38,5.43,1.91,7.79,5.39,8.07,11.18.17,3.47-.68,5.4-4.65,4.94A60,60,0,0,0,94.64,432.69Z" transform="translate(0.02 0)"/><path class="cls-1" d="M295.41,432.69H290c-3,0-6.29.49-7.5-3.27A9.36,9.36,0,0,1,285,419.35c4.25-4,9.44-4.53,14.84-2.46,4.52,1.74,7,6,7.19,11.44.09,3-.73,4.73-4.17,4.42-2.47-.22-5,0-7.47,0Z" transform="translate(0.02 0)"/><path class="cls-1" d="M126.69,485.77h-3.5c-2.65,0-5.88.53-6.69-2.82s.62-6.54,3.78-8.52c5.64-3.52,14.14-.36,15.4,5.75.73,3.57.36,6.37-4.5,5.63A32,32,0,0,0,126.69,485.77Z" transform="translate(0.02 0)"/><path class="cls-1" d="M175.84,484.69c0,1.76-.31,3.68-2.5,3.54-3-.2-5.9-1.73-7-4.3-.51-1.25,1.59-4.13,4.21-4C173.4,480.13,175.63,481.41,175.84,484.69Z" transform="translate(0.02 0)"/><path class="cls-1" d="M191,373.72h1.49c6.27,0,8.76,3.62,6.5,9.59-.21.57-.71,1.4-1.15,1.45-5.11.58-10.33,1.35-15.28-.3-2.91-1-2.34-4.11-2.22-6.57a4,4,0,0,1,4.16-4.1c2.16-.13,4.33,0,6.5,0Z" transform="translate(0.02 0)"/></svg>