<svg id="Capa_1" enable-background="new 0 0 501.022 501.022" height="512" viewBox="0 0 501.022 501.022" width="512" xmlns="http://www.w3.org/2000/svg"><circle cx="245" cy="255.688" fill="#fe5d6d" r="245"/><path d="m257.022 258.688h-24v-113c0-6.627 5.373-12 12-12 6.627 0 12 5.373 12 12z" fill="#35528c"/><path d="m233.022 223.688h24v35h-24z" fill="#0c1f35"/><path d="m411.022 258.688h-24v-113c0-6.627 5.373-12 12-12 6.627 0 12 5.373 12 12z" fill="#35528c"/><path d="m387.022 223.688h24v35h-24z" fill="#0c1f35"/><path d="m101.022 258.688h-24v-113c0-6.627 5.373-12 12-12 6.627 0 12 5.373 12 12z" fill="#35528c"/><path d="m77.022 223.688h24v35h-24z" fill="#0c1f35"/><path d="m489.923 249.59c-4.487-3.29-10.02-5.236-16.01-5.236h-473.643c-.171 3.758-.27 7.534-.27 11.334 0 81.156 39.47 153.082 100.249 197.667h289.501 84.163c14.972 0 27.109-12.137 27.109-27.109v-154.783c0-8.982-4.371-16.94-11.099-21.873z" fill="#35528c"/><path d="m117.059 368.032c3.758-5.451 5.963-12.056 5.963-19.177 0-15.849-10.899-29.149-25.61-32.824-4.837-19.203-7.412-39.305-7.412-60.01 0-3.8.099-7.576.27-11.333l-90-.333c-.171 3.757-.27 7.533-.27 11.333 0 81.156 39.47 153.082 100.249 197.667h89.552c-30.347-22.368-55.351-51.565-72.742-85.323z" fill="#1f3a60"/><circle cx="89.186" cy="348.854" fill="#fe5d6d" r="25.333"/><path d="m80.853 348.854c0-11.009 7.024-20.374 16.833-23.867-2.657-.947-5.518-1.466-8.5-1.466-13.991 0-25.333 11.342-25.333 25.333s11.342 25.333 25.333 25.333c2.982 0 5.843-.52 8.5-1.466-9.809-3.493-16.833-12.858-16.833-23.867z" fill="#d33c60"/><circle cx="245.186" cy="348.854" fill="#1f3a60" r="33.836"/><circle cx="245.186" cy="348.854" fill="#08d3cf" r="25.333"/><path d="m236.853 348.854c0-11.009 7.024-20.374 16.833-23.867-2.657-.947-5.518-1.466-8.5-1.466-13.991 0-25.333 11.342-25.333 25.333s11.342 25.333 25.333 25.333c2.982 0 5.843-.52 8.5-1.466-9.809-3.493-16.833-12.858-16.833-23.867z" fill="#01b1a6"/><circle cx="399.186" cy="348.854" fill="#1f3a60" r="33.836"/><circle cx="399.186" cy="348.854" fill="#08d3cf" r="25.333"/><path d="m390.853 348.854c0-11.009 7.024-20.374 16.833-23.867-2.657-.947-5.518-1.466-8.5-1.466-13.991 0-25.333 11.342-25.333 25.333s11.342 25.333 25.333 25.333c2.982 0 5.843-.52 8.5-1.466-9.809-3.493-16.833-12.858-16.833-23.867z" fill="#01b1a6"/><g fill="#fec753"><path d="m323.961 60.837c-2.721 0-5.376-1.377-6.896-3.87-15.454-25.359-42.386-40.499-72.043-40.499s-56.589 15.14-72.043 40.499c-2.318 3.805-7.282 5.01-11.087 2.69-3.804-2.318-5.009-7.282-2.69-11.087 8.805-14.449 21.212-26.537 35.88-34.958 15.13-8.687 32.4-13.278 49.941-13.278s34.81 4.592 49.941 13.278c14.668 8.422 27.075 20.51 35.88 34.958 2.319 3.805 1.114 8.768-2.69 11.087-1.313.8-2.762 1.18-4.193 1.18z"/><path d="m293.854 87.467c-2.721 0-5.376-1.377-6.896-3.87-8.997-14.762-24.674-23.576-41.936-23.576s-32.939 8.813-41.936 23.576c-2.318 3.804-7.282 5.009-11.087 2.69-3.804-2.318-5.009-7.282-2.69-11.087 11.949-19.607 32.777-31.313 55.713-31.313s43.764 11.706 55.713 31.313c2.318 3.805 1.114 8.768-2.69 11.087-1.311.8-2.76 1.18-4.191 1.18z"/><path d="m263.746 114.097c-2.721 0-5.377-1.377-6.896-3.87-2.538-4.165-6.959-6.651-11.828-6.651-4.868 0-9.29 2.487-11.828 6.651-2.318 3.806-7.284 5.01-11.087 2.691-3.805-2.318-5.009-7.282-2.691-11.087 5.491-9.01 15.063-14.39 25.605-14.39s20.114 5.379 25.605 14.39c2.318 3.804 1.114 8.768-2.691 11.087-1.309.798-2.758 1.179-4.189 1.179z"/></g></svg>