<svg id="Capa_1" enable-background="new 0 0 512 512" height="512" viewBox="0 0 512 512" width="512" xmlns="http://www.w3.org/2000/svg"><path d="m477.674 449h-21.348c-1.837 0-3.326-1.489-3.326-3.326v-5.674h28v5.674c0 1.837-1.489 3.326-3.326 3.326z" fill="#08d3cf"/><circle cx="256.25" cy="256" fill="#fe5d6d" r="245"/><path d="m211 425v71.813c14.667 2.739 29.789 4.187 45.25 4.187 15.286 0 30.24-1.413 44.75-4.091v-71.909z" fill="#35528c"/><path d="m211 425h90v34h-90z" fill="#1f3a60"/><path d="m498 442h-484c-7.732 0-14-6.268-14-14v-313c0-7.732 6.268-14 14-14h484c7.732 0 14 6.268 14 14v313c0 7.732-6.268 14-14 14z" fill="#35528c"/><path d="m70 428v-313c0-7.732 6.268-14 14-14h-70c-7.732 0-14 6.268-14 14v313c0 7.732 6.268 14 14 14h70c-7.732 0-14-6.268-14-14z" fill="#1f3a60"/><path d="m17 117h478v309h-478z" fill="#83c5ed"/><path d="m17 117h53v309h-53z" fill="#5bb3ce"/><g fill="#fff"><path d="m342.331 259.928c-2.926 0-5.782-1.481-7.417-4.162-16.621-27.273-45.586-43.556-77.482-43.556s-60.861 16.283-77.482 43.556c-2.493 4.092-7.832 5.388-11.924 2.893-4.091-2.493-5.387-7.832-2.893-11.924 9.469-15.539 22.813-28.54 38.588-37.597 16.273-9.342 34.845-14.281 53.71-14.281s37.438 4.938 53.711 14.281c15.775 9.057 29.119 22.058 38.588 37.597 2.494 4.092 1.198 9.43-2.893 11.924-1.409.859-2.968 1.269-4.506 1.269z"/><path d="m309.951 288.568c-2.926 0-5.782-1.481-7.417-4.162-9.676-15.876-26.536-25.355-45.101-25.355s-35.426 9.479-45.101 25.355c-2.493 4.091-7.831 5.387-11.924 2.893-4.091-2.493-5.387-7.832-2.893-11.924 12.851-21.087 35.251-33.677 59.918-33.677 24.668 0 47.067 12.589 59.918 33.677 2.493 4.092 1.198 9.43-2.893 11.924-1.41.859-2.968 1.269-4.507 1.269z"/><path d="m277.57 317.208c-2.926 0-5.783-1.481-7.417-4.163-2.729-4.479-7.485-7.153-12.72-7.153-5.236 0-9.991 2.674-12.72 7.153-2.493 4.093-7.833 5.388-11.924 2.894-4.092-2.493-5.387-7.832-2.894-11.924 5.905-9.691 16.2-15.476 27.538-15.476s21.633 5.786 27.538 15.476c2.493 4.091 1.198 9.43-2.894 11.924-1.41.859-2.968 1.269-4.507 1.269z"/><circle cx="257.433" cy="337.577" r="10.845"/></g></svg>