<svg xmlns="http://www.w3.org/2000/svg" height="512pt" version="1.1" viewBox="-53 0 512 512" width="512pt">
<g id="surface1">
<path d="M 392.78125 144.820312 L 392.78125 444.847656 C 392.78125 474.898438 368.417969 499.261719 338.367188 499.261719 L 67.277344 499.261719 C 37.226562 499.261719 12.863281 474.898438 12.863281 444.847656 L 12.863281 67.152344 C 12.863281 37.101562 37.226562 12.738281 67.277344 12.738281 L 267.007812 12.738281 L 267.007812 102.894531 C 267.007812 126.144531 285.804688 144.941406 309.054688 144.941406 L 392.78125 144.941406 Z M 392.78125 144.820312 " style=" stroke:none;fill-rule:nonzero;fill:rgb(0%,67.45098%,91.764706%);fill-opacity:1;" />
<path d="M 267.007812 12.738281 L 392.78125 144.945312 L 309.054688 144.945312 C 285.804688 144.945312 267.007812 126.144531 267.007812 102.894531 Z M 267.007812 12.738281 " style=" stroke:none;fill-rule:nonzero;fill:rgb(0%,93.72549%,81.960784%);fill-opacity:1;" />
<path d="M 275.910156 3.957031 C 273.5625 1.484375 270.347656 0 267.007812 0 L 67.277344 0 C 30.421875 0 0 30.300781 0 67.152344 L 0 444.847656 C 0 481.699219 30.421875 512 67.277344 512 L 338.367188 512 C 375.21875 512 405.640625 481.699219 405.640625 444.847656 L 405.640625 144.820312 C 405.640625 141.605469 404.15625 138.511719 402.054688 136.164062 Z M 279.5 43.65625 L 363.964844 132.328125 L 309.054688 132.328125 C 292.730469 132.328125 279.5 119.21875 279.5 102.769531 Z M 338.367188 487.265625 L 67.277344 487.265625 C 44.152344 487.265625 24.734375 468.097656 24.734375 444.847656 L 24.734375 67.152344 C 24.734375 44.027344 44.027344 24.734375 67.277344 24.734375 L 254.765625 24.734375 L 254.765625 102.769531 C 254.765625 132.824219 279.003906 157.0625 309.054688 157.0625 L 380.910156 157.0625 L 380.910156 444.847656 C 380.910156 468.097656 361.617188 487.265625 338.367188 487.265625 Z M 338.367188 487.265625 " style=" stroke:none;fill-rule:nonzero;fill:rgb(3.137255%,21.960784%,38.823529%);fill-opacity:1;" />
<path d="M 304.601562 401.933594 L 101.039062 401.933594 C 94.238281 401.933594 88.671875 407.496094 88.671875 414.300781 C 88.671875 421.101562 94.238281 426.667969 101.039062 426.667969 L 304.726562 426.667969 C 311.527344 426.667969 317.09375 421.101562 317.09375 414.300781 C 317.09375 407.496094 311.527344 401.933594 304.601562 401.933594 Z M 304.601562 401.933594 " style=" stroke:none;fill-rule:nonzero;fill:rgb(3.137255%,21.960784%,38.823529%);fill-opacity:1;" />
<path d="M 193.792969 357.535156 C 196.144531 360.007812 199.359375 361.492188 202.820312 361.492188 C 206.285156 361.492188 209.5 360.007812 211.847656 357.535156 L 284.195312 279.746094 C 288.898438 274.796875 288.527344 266.882812 283.578125 262.308594 C 278.632812 257.609375 270.714844 257.980469 266.140625 262.925781 L 215.1875 317.714844 L 215.1875 182.664062 C 215.1875 175.863281 209.625 170.296875 202.820312 170.296875 C 196.019531 170.296875 190.453125 175.859375 190.453125 182.664062 L 190.453125 317.710938 L 139.5 262.925781 C 134.800781 257.980469 127.011719 257.609375 122.0625 262.308594 C 117.117188 267.007812 116.746094 274.796875 121.445312 279.742188 Z M 193.792969 357.535156 " style=" stroke:none;fill-rule:nonzero;fill:rgb(3.137255%,21.960784%,38.823529%);fill-opacity:1;" />
</g>
</svg>