<?xml version="1.0" encoding="iso-8859-1"?>
<!-- Generator: Adobe Illustrator 19.0.0, SVG Export Plug-In . SVG Version: 6.00 Build 0)  -->
<svg version="1.1" id="Capa_1" xmlns="http://www.w3.org/2000/svg" xmlns:xlink="http://www.w3.org/1999/xlink" x="0px" y="0px"
	 viewBox="0 0 506.253 506.253" style="enable-background:new 0 0 506.253 506.253;" xml:space="preserve">
<path style="fill:#4DCFE0;" d="M373.551,224.653c64.261,0,116.506,52.245,116.506,116.506s-52.245,116.506-116.506,116.506
	c-36.571,0-68.963-16.718-90.384-42.841h-60.604c-21.42,26.122-53.812,42.841-90.384,42.841
	c-64.261,0-116.506-52.245-116.506-116.506S67.918,224.653,132.18,224.653h43.886h153.6H373.551z M410.122,337.502
	c0,8.359,6.792,15.151,15.151,15.151c8.359,0,15.151-6.792,15.151-15.151c0-8.359-6.792-15.151-15.151-15.151
	C416.914,322.351,410.122,329.143,410.122,337.502z M357.878,389.747c0,8.359,6.792,15.151,15.151,15.151
	c8.359,0,15.151-6.792,15.151-15.151c0-8.359-6.792-15.151-15.151-15.151C364.669,374.596,357.878,381.388,357.878,389.747z
	 M357.878,285.257c0,8.359,6.792,15.151,15.151,15.151c8.359,0,15.151-6.792,15.151-15.151s-6.792-15.151-15.151-15.151
	C364.669,270.106,357.878,276.898,357.878,285.257z M320.784,352.653c8.359,0,15.151-6.792,15.151-15.151
	c0-8.359-6.792-15.151-15.151-15.151s-15.151,6.792-15.151,15.151C305.633,345.861,312.424,352.653,320.784,352.653z"/>
<path style="fill:#00BBD3;" d="M329.665,223.608v1.045h-153.6v-1.045v-29.257c0-14.629,11.494-26.122,26.122-26.122h101.355
	c14.629,0,26.122,11.494,26.122,26.122C329.665,194.351,329.665,223.608,329.665,223.608z"/>
<g>
	<path style="fill:#3A2C51;" d="M174.498,324.441h-32.914v-32.914c0-8.882-6.792-15.673-15.673-15.673s-15.673,6.792-15.673,15.673
		v32.914H77.322c-8.882,0-15.673,6.792-15.673,15.673s6.792,15.673,15.673,15.673h32.914v32.914c0,8.882,6.792,15.673,15.673,15.673
		s15.673-6.792,15.673-15.673v-32.914h32.914c8.882,0,15.673-6.792,15.673-15.673S183.38,324.441,174.498,324.441z"/>
	<path style="fill:#3A2C51;" d="M373.029,316.082c-17.241,0-30.824-13.584-30.824-30.824c0-17.241,13.584-30.824,30.824-30.824
		c17.241,0,30.824,13.584,30.824,30.824S390.269,316.082,373.029,316.082z M373.029,284.735
		C372.506,284.735,372.506,284.735,373.029,284.735C372.506,285.78,373.551,285.78,373.029,284.735
		C373.551,284.735,373.551,284.735,373.029,284.735z"/>
	<path style="fill:#3A2C51;" d="M373.029,420.571c-17.241,0-30.824-13.584-30.824-30.824c0-17.241,13.584-30.825,30.824-30.825
		c17.241,0,30.824,13.584,30.824,30.825C403.853,406.988,390.269,420.571,373.029,420.571z M373.029,389.224
		C372.506,389.224,372.506,389.224,373.029,389.224C372.506,390.269,373.551,390.269,373.029,389.224
		C373.551,389.224,373.551,389.224,373.029,389.224z"/>
	<path style="fill:#3A2C51;" d="M425.273,368.327c-17.241,0-30.824-13.584-30.824-30.824s13.584-30.824,30.824-30.824
		c17.241,0,30.824,13.584,30.824,30.824C456.098,354.743,442.514,368.327,425.273,368.327z M425.273,336.98
		C424.751,336.98,424.751,336.98,425.273,336.98C424.751,338.024,425.796,338.024,425.273,336.98
		C425.796,336.98,425.796,336.98,425.273,336.98z"/>
	<path style="fill:#3A2C51;" d="M320.784,368.327c-17.241,0-30.824-13.584-30.824-30.824s13.584-30.824,30.824-30.824
		c17.241,0,30.824,13.584,30.824,30.824C351.608,354.743,338.025,368.327,320.784,368.327z M320.784,336.98
		C320.261,336.98,320.261,336.98,320.784,336.98C320.261,338.024,321.306,338.024,320.784,336.98
		C321.306,336.98,321.306,336.98,320.784,336.98z"/>
	<path style="fill:#3A2C51;" d="M373.551,208.98h-28.212v-14.629c0-23.51-18.286-41.796-41.796-41.796H279.51
		c5.224-5.747,9.927-13.584,9.927-25.6c0-16.718-9.404-25.6-15.673-31.347c-5.224-4.702-5.224-5.224-5.224-7.837
		c0-2.612,0.522-3.657,5.747-8.359c6.269-5.747,15.151-14.629,15.151-30.824c0-8.882-6.792-15.673-15.673-15.673
		c-8.882,0-15.673,6.792-15.673,15.673c0,2.612-0.522,3.657-5.747,8.359c-5.747,5.747-15.151,14.629-15.151,30.824
		s9.404,25.078,15.151,30.824c5.224,4.702,5.747,5.747,5.747,8.359c0,2.612-0.522,3.657-5.747,8.359
		c-4.18,3.657-9.404,8.882-12.539,17.241h-37.616c-23.51,0-41.796,18.286-41.796,41.796v14.629H132.18
		C59.037,208.98,0,268.016,0,341.159s59.037,132.18,132.18,132.18c37.094,0,72.62-15.673,97.698-42.841h46.498
		c25.078,27.167,60.082,42.841,97.698,42.841c73.143,0,132.18-59.037,132.18-132.18S446.694,208.98,373.551,208.98z
		 M191.739,194.351c0-5.747,4.702-10.449,10.449-10.449h101.355c5.747,0,10.449,4.702,10.449,10.449v14.629H191.739V194.351z
		 M373.551,441.992c-30.302,0-59.037-13.584-78.367-37.094c-3.135-3.657-7.314-5.747-12.016-5.747h-60.604
		c-4.702,0-9.404,2.09-12.016,5.747c-19.331,23.51-48.065,37.094-78.367,37.094c-55.38,0-100.833-45.453-100.833-100.833
		S76.8,240.327,132.18,240.327h241.371c55.38,0,100.833,45.453,100.833,100.833S428.931,441.992,373.551,441.992z"/>
</g>
<g>
</g>
<g>
</g>
<g>
</g>
<g>
</g>
<g>
</g>
<g>
</g>
<g>
</g>
<g>
</g>
<g>
</g>
<g>
</g>
<g>
</g>
<g>
</g>
<g>
</g>
<g>
</g>
<g>
</g>
</svg>
