<?xml version="1.0" encoding="iso-8859-1"?>
<!-- Generator: Adobe Illustrator 19.0.0, SVG Export Plug-In . SVG Version: 6.00 Build 0)  -->
<svg version="1.1" id="Capa_1" xmlns="http://www.w3.org/2000/svg" xmlns:xlink="http://www.w3.org/1999/xlink" x="0px" y="0px"
	 viewBox="0 0 466.024 466.024" style="enable-background:new 0 0 466.024 466.024;" xml:space="preserve">
<path style="fill:#4DCFE0;" d="M399.151,345.339h-32.392V214.727h32.392h1.045c17.241,0,31.347,14.106,31.347,31.347v67.918
	c0,17.241-14.106,31.347-31.347,31.347H399.151z"/>
<g>
	<polygon style="fill:#D4E1F4;" points="366.759,214.727 366.759,345.339 366.759,355.265 311.38,355.265 311.38,204.278 
		366.759,204.278 	"/>
	<polygon style="fill:#D4E1F4;" points="154.645,204.278 154.645,355.788 99.788,355.265 99.788,345.339 99.788,214.727 
		99.788,204.278 	"/>
</g>
<path style="fill:#4DCFE0;" d="M99.788,214.727v130.612h-0.522H65.829c-17.241,0-31.347-14.106-31.347-31.347v-67.918
	c0-17.241,14.106-31.347,31.347-31.347h1.045H99.788z"/>
<path style="fill:#3A2C51;" d="M414.824,201.665v-19.853c0-48.065-18.808-93.518-53.29-128.522C328.098,18.808,282.122,0,233.012,0
	C132.702,0,51.2,81.502,51.2,181.29v20.376c-18.808,5.747-32.392,23.51-32.392,44.408v67.918c0,26.122,20.898,47.02,47.02,47.02
	h19.331c2.09,5.747,7.837,9.927,14.629,9.927l54.857,0.522l0,0c4.18,0,7.837-1.567,10.971-4.702
	c3.135-3.135,4.702-6.792,4.702-10.971v-151.51c0-8.882-6.792-15.673-15.673-15.673H99.788c-6.792,0-12.539,4.18-14.629,10.449
	h-2.612V181.29c0-82.547,67.396-149.943,150.465-149.943c40.751,0,78.367,15.673,106.58,43.886
	c28.212,28.735,43.886,66.873,43.886,106.58v17.241h-2.09c-2.09-6.269-7.837-10.449-14.629-10.449h-55.38
	c-8.882,0-15.673,6.792-15.673,15.673v150.988c0,8.882,6.792,15.673,15.673,15.673h55.38c6.792,0,12.016-4.18,14.629-9.927h0.522
	c-6.792,27.69-31.347,48.065-61.127,48.065h-28.212c-5.224-18.286-22.465-31.869-42.318-31.869h-17.241
	c-12.016,0-22.988,4.702-31.347,13.061c-8.359,8.359-13.061,19.853-13.061,31.347c0,24.555,19.853,44.408,44.408,44.408h17.241
	c12.016,0,22.988-4.702,31.347-13.061c3.657-3.657,6.269-7.837,8.882-12.539h30.302c47.543,0,86.727-35.527,92.996-81.502
	c19.331-5.747,33.437-24.033,33.437-44.931v-67.918C447.216,225.176,433.633,207.412,414.824,201.665z M115.461,219.951h23.51
	v120.163h-23.51V219.951z M50.155,313.992v-67.918c0-8.882,6.792-15.673,15.673-15.673h18.286v99.265H65.829
	C56.947,329.665,50.155,322.873,50.155,313.992z M263.314,423.184c-0.522,3.657-2.612,6.269-3.657,7.314
	c-2.612,2.612-5.747,3.657-9.404,3.657h-17.241c-6.792,0-13.061-6.269-13.061-13.061c0-3.657,1.567-6.792,3.657-9.404
	c2.612-2.612,5.747-3.657,9.404-3.657h17.241c6.792,0,13.061,6.269,13.061,13.061V423.184z M351.086,339.592h-24.033V219.951h24.033
	V339.592z M415.869,313.992c0,8.882-6.792,15.673-15.673,15.673h-17.763V230.4h17.763c8.882,0,15.673,6.792,15.673,15.673V313.992z"
	/>
<g>
</g>
<g>
</g>
<g>
</g>
<g>
</g>
<g>
</g>
<g>
</g>
<g>
</g>
<g>
</g>
<g>
</g>
<g>
</g>
<g>
</g>
<g>
</g>
<g>
</g>
<g>
</g>
<g>
</g>
</svg>
