<?xml version="1.0" encoding="iso-8859-1"?>
<!-- Generator: Adobe Illustrator 19.0.0, SVG Export Plug-In . SVG Version: 6.00 Build 0)  -->
<svg version="1.1" id="Capa_1" xmlns="http://www.w3.org/2000/svg" xmlns:xlink="http://www.w3.org/1999/xlink" x="0px" y="0px"
	 viewBox="0 0 482.873 482.873" style="enable-background:new 0 0 482.873 482.873;" xml:space="preserve">
<g>
	<path style="fill:#D4E1F4;" d="M141.714,334.433c4.18,4.18,6.792,9.927,6.792,16.718c-0.522,6.269-3.135,12.539-7.314,16.718
		c-4.18,4.18-9.927,6.792-16.196,6.792c-13.061,0-23.51-10.449-23.51-23.51c0-6.269,2.612-12.539,6.792-16.718
		s9.927-6.792,16.718-6.792S137.535,330.253,141.714,334.433z"/>
	<path style="fill:#D4E1F4;" d="M242.024,334.433c4.18,4.18,6.792,9.927,6.792,16.718c-0.522,6.269-3.135,12.539-7.314,16.718
		c-4.18,4.18-9.927,6.792-16.196,6.792c-13.061,0-23.51-10.449-23.51-23.51c0-6.269,2.612-12.539,6.792-16.718
		c4.18-4.18,9.927-6.792,16.718-6.792C232.098,327.641,237.845,330.253,242.024,334.433z"/>
</g>
<path style="fill:#4DCFE0;" d="M467.2,278.008v146.286H38.792V278.008H134.4h78.367H467.2z M248.816,351.151
	c0-6.269-2.612-12.539-6.792-16.718c-4.18-4.18-9.927-6.792-16.718-6.792c-6.792,0-12.539,2.612-16.718,6.792
	c-4.18,4.18-6.792,9.927-6.792,16.718c0,13.061,10.449,23.51,23.51,23.51c6.269,0,12.016-2.612,16.196-6.792
	C245.682,363.69,248.294,357.42,248.816,351.151z M148.506,351.151c0-6.269-2.612-12.539-6.792-16.718
	c-4.18-4.18-9.927-6.792-16.718-6.792c-6.792,0-12.539,2.612-16.718,6.792c-4.18,4.18-6.792,9.927-6.792,16.718
	c0,13.061,10.449,23.51,23.51,23.51c6.269,0,12.016-2.612,16.196-6.792C145.371,363.69,147.984,357.42,148.506,351.151z"/>
<g>
	<path style="fill:#3A2C51;" d="M81.633,170.384c-4.18,0-7.837-1.567-10.971-4.702c-26.122-26.122-26.122-68.441,0-94.041
		c6.269-6.269,16.196-6.269,21.943,0c6.269,6.269,6.269,16.196,0,21.943c-13.584,13.584-13.584,36.049,0,50.155
		c6.269,6.269,6.269,16.196,0,21.943C89.469,168.816,85.812,170.384,81.633,170.384z"/>
	<path style="fill:#3A2C51;" d="M40.359,194.416c-4.18,0-7.837-1.567-10.971-4.702c-39.184-39.184-39.184-102.922,0-142.106
		c6.269-6.269,16.196-6.269,21.943,0c6.269,6.269,6.269,16.196,0,21.943c-26.645,27.167-26.645,71.053,0,98.22
		c6.269,6.269,6.269,16.196,0,21.943C48.196,192.849,44.539,194.416,40.359,194.416z"/>
	<path style="fill:#3A2C51;" d="M467.2,262.335H228.441V131.722c0-8.882-6.792-15.673-15.673-15.673s-15.673,6.792-15.673,15.673
		v130.612h-47.02V131.722c0-8.882-6.792-15.673-15.673-15.673s-15.673,6.792-15.673,15.673v130.612H38.792
		c-8.882,0-15.673,6.792-15.673,15.673v146.286c0,8.882,6.792,15.673,15.673,15.673H467.2c8.882,0,15.673-6.792,15.673-15.673
		V278.008C482.873,269.127,476.082,262.335,467.2,262.335z M451.527,408.62H54.465V293.682h397.061V408.62z"/>
	<path style="fill:#3A2C51;" d="M268.669,170.384c-4.18,0-7.837-1.567-10.971-4.702c-6.269-6.269-6.269-16.196,0-21.943
		c6.792-6.792,10.449-15.673,10.449-25.078c0-9.404-3.657-18.286-10.449-25.078c-6.269-6.269-6.269-16.196,0-21.943
		c6.269-6.269,16.196-6.269,21.943,0c26.122,26.122,26.122,68.441,0,94.041C276.506,168.816,272.849,170.384,268.669,170.384z"/>
	<path style="fill:#3A2C51;" d="M309.943,194.416c-4.18,0-7.837-1.567-10.971-4.702c-6.269-6.269-6.269-16.196,0-21.943
		c26.645-27.167,26.645-71.053,0-98.22c-6.269-6.269-6.269-16.196,0-21.943c6.269-6.269,16.196-6.269,21.943,0
		c39.184,39.184,39.184,102.922,0,142.106C318.302,192.849,314.122,194.416,309.943,194.416z"/>
	<path style="fill:#3A2C51;" d="M225.306,390.335c-21.42,0-39.184-17.763-39.184-39.184c0-10.449,4.18-20.898,11.494-27.69
		c7.314-7.314,17.241-11.494,27.69-11.494c10.449,0,20.376,4.18,27.69,11.494c7.314,7.314,11.494,17.241,11.494,27.69
		c0,0.522,0,1.045,0,1.567c-1.045,9.927-5.224,19.853-12.016,26.645C245.159,386.155,235.755,390.335,225.306,390.335z
		 M225.306,343.314c-2.09,0-4.18,0.522-5.747,2.09c-1.045,1.045-2.09,3.657-2.09,5.747c0,4.18,3.657,7.837,7.837,7.837
		c2.09,0,3.657-0.522,5.225-2.09c1.045-1.045,2.09-3.657,2.612-6.269c0-2.09-1.045-3.657-2.09-5.224
		C229.486,343.837,227.396,343.314,225.306,343.314z"/>
	<path style="fill:#3A2C51;" d="M124.996,390.335c-21.42,0-39.184-17.763-39.184-39.184c0-10.449,4.18-20.898,11.494-27.69
		c7.314-7.314,17.241-11.494,27.69-11.494s20.376,4.18,27.69,11.494c7.314,7.314,11.494,17.241,11.494,27.69
		c0,0.522,0,1.045,0,1.045c-1.045,9.927-5.224,19.853-12.016,26.645C144.849,386.155,135.445,390.335,124.996,390.335z
		 M124.996,343.314c-2.09,0-4.18,0.522-5.747,2.09c-1.045,1.045-2.09,3.657-2.09,5.747c0,4.18,3.657,7.837,7.837,7.837
		c2.612,0,4.18-1.567,5.224-2.09c1.045-1.045,2.09-3.657,2.612-6.269c0-2.09-1.045-3.657-2.09-5.224
		C129.176,343.837,127.086,343.314,124.996,343.314z"/>
</g>
<g>
</g>
<g>
</g>
<g>
</g>
<g>
</g>
<g>
</g>
<g>
</g>
<g>
</g>
<g>
</g>
<g>
</g>
<g>
</g>
<g>
</g>
<g>
</g>
<g>
</g>
<g>
</g>
<g>
</g>
</svg>
