<svg height="492pt" viewBox="0 -59 492 492" width="492pt" xmlns="http://www.w3.org/2000/svg"><path d="m484 261.660156v104h-476v-104zm-130.320312 72.980469v-42.359375h-44.078126v42.359375zm0 0" fill="#00acea"/><path d="m484 8.339844v253.320312h-476v-253.320312zm-283.328125 197.308594 118.019531-73.027344-118.019531-73.019532zm0 0" fill="#00efd1"/><path d="m309.601562 292.28125h44.078126v42.359375h-44.078126zm0 0" fill="#fedb41"/><path d="m318.691406 132.621094-118.019531 73.027344v-146.046876zm0 0" fill="#fedb41"/><g fill="#083863"><path d="m492 8c0-4.417969-3.582031-8-8-8h-476c-4.417969 0-8 3.582031-8 8v357c0 4.417969 3.582031 8 8 8h476c4.417969 0 8-3.582031 8-8zm-16 8v238h-460v-238zm-460 342v-88h460v88zm0 0"/><path d="m196.941406 212.636719c1.160156.664062 2.472656 1.011719 3.8125 1.011719 1.472656 0 2.917969-.414063 4.167969-1.199219l118-73.027344c2.355469-1.460937 3.785156-4.039063 3.78125-6.808594-.003906-2.773437-1.441406-5.34375-3.796875-6.800781l-118.023438-73.011719c-2.410156-1.527343-5.464843-1.597656-7.941406-.1875-2.492187 1.433594-4.003906 4.113281-3.941406 6.988281v146.046876c-.066406 2.878906 1.445312 5.558593 3.941406 6.988281zm12.058594-138.679688 94.816406 58.664063-94.816406 58.671875zm0 0"/><path d="m414 306h-52v-13.71875c-.128906-4.535156-3.785156-8.175781-8.320312-8.28125h-44.078126c-4.417968 0-7.601562 3.859375-7.601562 8.28125v13.71875h-244c-4.417969 0-8 3.582031-8 8s3.582031 8 8 8h244v12.640625c0 4.417969 3.183594 8.359375 7.601562 8.359375h44.078126c4.550781-.140625 8.199218-3.808594 8.320312-8.359375v-12.640625h52c4.417969 0 8-3.582031 8-8s-3.582031-8-8-8zm-68 21h-28v-27h28zm0 0"/></g></svg>