<svg height="480pt" viewBox="0 0 480 480.00078" width="480pt" xmlns="http://www.w3.org/2000/svg"><path d="m404.273438 121.121094c-13.75-61.789063-66.242188-107.347656-129.347657-112.277344-63.109375-4.925781-122.035156 31.933594-145.210937 90.835938-44.757813-12.652344-92.152344 8.601562-112.472656 50.441406-20.320313 41.839844-7.722657 92.226562 29.898437 119.582031 37.617187 27.355469 89.4375 23.804687 122.972656-8.421875 50.863281 43.765625 125.265625 46.421875 179.121094 6.398438 27.480469 17.503906 62.832031 16.59375 89.375-2.300782 26.542969-18.894531 38.972656-52 31.429687-83.695312-7.542968-31.695313-33.554687-55.652344-65.765624-60.5625zm0 0" fill="#4891d3"/><path d="m391.714844 120c-27.210938 0-52.558594 13.835938-67.28125 36.722656 31.660156-20.363281 73.230468-15.902344 99.84375 10.714844 26.617187 26.617188 31.078125 68.183594 10.71875 99.84375 29.851562-19.203125 43.476562-55.78125 33.46875-89.835938-10.003906-34.054687-41.253906-57.441406-76.75-57.445312zm0 0" fill="#57b7eb"/><path d="m363.15625 125.359375c9.105469-3.539063 18.789062-5.359375 28.558594-5.359375 4.210937.007812 8.414062.378906 12.558594 1.121094-12.238282-55.300782-55.757813-98.289063-111.199219-109.851563-55.445313-11.558593-112.519531 10.453125-145.839844 56.25 35.125-25.464843 79.863281-33.738281 121.773437-22.515625 41.910157 11.222656 76.527344 40.742188 94.226563 80.355469zm0 0" fill="#57b7eb"/><path d="m87.714844 128c30.058594.023438 58.371094 14.121094 76.5 38.097656 18.132812 23.972656 23.984375 55.054688 15.820312 83.984375 23.585938-30.714843 26.40625-72.59375 7.152344-106.195312-19.253906-33.601563-56.808594-52.34375-95.234375-47.527344s-70.195313 32.25-80.558594 69.5625c18.128907-23.859375 46.355469-37.882813 76.320313-37.921875zm0 0" fill="#57b7eb"/><path d="m383.714844 296c0 79.53125-64.472656 144-144 144s-144-64.46875-144-144c0-79.527344 64.472656-144 144-144s144 64.472656 144 144zm0 0" fill="#f9e109"/><path d="m263.714844 392c-45.085938-.03125-87.554688-21.179688-114.75-57.140625-27.195313-35.964844-35.980469-82.585937-23.730469-125.980469-35.378906 46.074219-39.609375 108.894532-10.730469 159.292969 28.882813 50.402344 85.214844 78.515625 142.851563 71.292969 57.640625-7.226563 105.292969-48.375 120.839843-104.34375-27.191406 35.785156-69.535156 56.824218-114.480468 56.878906zm0 0" fill="#fcbc04"/><path d="m255.714844 368c0 8.835938-7.164063 16-16 16-8.835938 0-16-7.164062-16-16s7.164062-16 16-16c8.835937 0 16 7.164062 16 16zm0 0" fill="#7ab92d"/><path d="m160.515625 288.800781c43.738281-43.742187 114.660156-43.742187 158.398437 0l22.640626-22.640625c-56.238282-56.257812-147.441407-56.257812-203.679688 0zm0 0" fill="#7ab92d"/><path d="m205.792969 334.082031c18.742187-18.71875 49.101562-18.71875 67.84375 0l22.636719-22.640625c-31.238282-31.230468-81.878907-31.230468-113.117188 0zm0 0" fill="#7ab92d"/><path d="m455.714844 456c0 8.835938-7.164063 16-16 16-8.835938 0-16-7.164062-16-16s7.164062-16 16-16c8.835937 0 16 7.164062 16 16zm0 0" fill="#f9e109"/><path d="m434.355469 445.359375c.023437-1.578125.292969-3.140625.800781-4.636719-7.371094 2.148438-12.175781 9.226563-11.449219 16.871094.722657 7.640625 6.773438 13.691406 14.417969 14.414062 7.640625.726563 14.71875-4.078124 16.871094-11.445312-1.496094.503906-3.0625.773438-4.640625.796875-8.835938 0-16-7.160156-16-16zm0 0" fill="#fcbc04"/><path d="m47.714844 432c0 8.835938-7.164063 16-16 16-8.835938 0-16-7.164062-16-16s7.164062-16 16-16c8.835937 0 16 7.164062 16 16zm0 0" fill="#f9e109"/><path d="m26.355469 421.359375c.023437-1.578125.292969-3.140625.800781-4.636719-7.371094 2.148438-12.175781 9.226563-11.449219 16.871094.722657 7.640625 6.773438 13.691406 14.417969 14.414062 7.640625.726563 14.71875-4.078124 16.871094-11.445312-1.496094.503906-3.0625.773438-4.640625.796875-8.835938 0-16-7.160156-16-16zm0 0" fill="#fcbc04"/><g fill="#39519d"><path d="m479.714844 200c.164062-41.25-28.503906-77.015625-68.800782-85.839844-17.566406-66.988281-77.945312-113.816406-147.199218-114.160156-60.09375-.191406-114.589844 35.238281-138.800782 90.242188-6.964843-1.496094-14.074218-2.25-21.199218-2.242188-48.957032.136719-91.1875 34.394531-101.417969 82.269531s14.3125 96.402344 58.9375 116.53125c1.035156.441407 2.15625.660157 3.28125.640625 3.910156.175782 7.371094-2.503906 8.183594-6.332031.8125-3.824219-1.261719-7.679687-4.90625-9.109375-40.960938-19.492188-60.394531-66.929688-44.878907-109.558594 15.511719-42.628906 60.890626-66.476562 104.800782-55.082031 3.984375 1.152344 8.183594-.933594 9.679687-4.796875 20.132813-52.21875 70.355469-86.632812 126.320313-86.5625 63.742187.3125 118.820312 44.609375 132.800781 106.800781.714844 3.207031 3.316406 5.648438 6.558594 6.160157 34.914062 5.578124 60.613281 35.683593 60.640625 71.039062-.007813 31.808594-20.886719 59.84375-51.359375 68.960938-4.242188 1.257812-6.660157 5.71875-5.402344 9.960937 1.261719 4.242187 5.71875 6.65625 9.960937 5.398437 37.160157-11.296874 62.621094-45.484374 62.800782-84.320312zm0 0"/><path d="m222.753906 351.039062c-9.359375 9.371094-9.359375 24.550782 0 33.921876 9.371094 9.359374 24.550782 9.359374 33.921875 0 6.421875-5.984376 9.0625-14.992188 6.890625-23.496094s-8.8125-15.144532-17.3125-17.316406c-8.503906-2.171876-17.515625.472656-23.5 6.890624zm22.640625 22.640626c-3.136719 3.136718-8.222656 3.136718-11.359375 0-3.136718-3.136719-3.136718-8.222657 0-11.359376 1.5-1.515624 3.546875-2.367187 5.679688-2.367187 2.132812 0 4.179687.851563 5.679687 2.367187 1.515625 1.503907 2.367188 3.546876 2.367188 5.679688s-.851563 4.179688-2.367188 5.679688zm0 0"/><path d="m239.714844 216c-40.332032-.121094-79.03125 15.929688-107.441406 44.5625-3.101563 3.117188-3.101563 8.15625 0 11.277344l22.5625 22.640625c1.5 1.515625 3.546874 2.367187 5.679687 2.367187s4.175781-.851562 5.679687-2.367187c40.609376-40.589844 106.429688-40.589844 147.039063 0 1.503906 1.515625 3.546875 2.367187 5.679687 2.367187 2.132813 0 4.179688-.851562 5.679688-2.367187 1.515625-1.5 2.367188-3.546875 2.367188-5.679688 0-2.132812-.851563-4.179687-2.367188-5.679687-44.679688-44.695313-116.371094-47.074219-163.917969-5.441406l-11.28125-11.359376c53.84375-47.660156 135.480469-45.171874 186.320313 5.679688 3.121094 3.101562 8.160156 3.101562 11.28125 0 3.101562-3.121094 3.101562-8.160156 0-11.277344-28.34375-28.652344-66.980469-44.757812-107.28125-44.722656zm0 0"/><path d="m273.636719 342.082031c2.136719-.011719 4.179687-.875 5.679687-2.402343l22.636719-22.558594c1.515625-1.503906 2.367187-3.546875 2.367187-5.679688 0-2.132812-.851562-4.179687-2.367187-5.679687-34.367187-34.386719-90.109375-34.386719-124.476563 0-1.5 1.507812-2.332031 3.550781-2.320312 5.679687-.011719 2.125.820312 4.167969 2.320312 5.679688l22.636719 22.558594c3.121094 3.101562 8.160157 3.101562 11.28125 0 7.503907-7.523438 17.695313-11.75 28.320313-11.75s20.816406 4.226562 28.320312 11.75c1.476563 1.507812 3.488282 2.371093 5.601563 2.402343zm-67.441407-18.960937-11.441406-11.121094c26.289063-21.015625 63.632813-21.015625 89.921875 0l-11.441406 11.359375c-19.824219-14.921875-47.109375-15.019531-67.039063-.238281zm0 0"/><path d="m239.714844 144c-67.898438.003906-127.5625 45.035156-146.175782 110.335938-18.609374 65.296874 8.34375 135.019531 66.035157 170.820312 57.695312 35.800781 132.136719 28.992188 182.378906-16.675781 3.269531-2.980469 3.503906-8.050781.523437-11.320313-2.984374-3.269531-8.050781-3.5-11.320312-.519531-53.152344 48.148437-134.605469 46.582031-185.871094-3.570313-51.261718-50.15625-54.605468-131.558593-7.628906-185.746093 46.976562-54.191407 128.027344-62.433594 184.949219-18.804688 56.921875 43.628907 70.03125 124.035157 29.910156 183.480469-1.191406 1.761719-1.632813 3.921875-1.226563 6.007812.402344 2.085938 1.621094 3.925782 3.386719 5.113282 3.648438 2.425781 8.570313 1.460937 11.039063-2.160156 31.40625-46.59375 34.546875-106.710938 8.167968-156.324219-26.378906-49.609375-77.976562-80.621094-134.167968-80.636719zm0 0"/><path d="m447.714844 296c0-4.417969-3.582032-8-8-8-4.417969 0-8 3.582031-8 8v16c0 4.417969 3.582031 8 8 8 4.417968 0 8-3.582031 8-8zm0 0"/><path d="m447.714844 344c0 4.417969-3.582032 8-8 8-4.417969 0-8-3.582031-8-8s3.582031-8 8-8c4.417968 0 8 3.582031 8 8zm0 0"/><path d="m439.714844 432c-13.253906 0-24 10.746094-24 24s10.746094 24 24 24 24-10.746094 24-24-10.746094-24-24-24zm0 32c-4.417969 0-8-3.582031-8-8s3.582031-8 8-8c4.417968 0 8 3.582031 8 8s-3.582032 8-8 8zm0 0"/><path d="m431.714844 376v32c0 4.417969 3.582031 8 8 8 4.417968 0 8-3.582031 8-8v-32c0-4.417969-3.582032-8-8-8-4.417969 0-8 3.582031-8 8zm0 0"/><path d="m39.714844 296c0 4.417969-3.582032 8-8 8-4.417969 0-8-3.582031-8-8s3.582031-8 8-8c4.417968 0 8 3.582031 8 8zm0 0"/><path d="m39.714844 328c0 4.417969-3.582032 8-8 8-4.417969 0-8-3.582031-8-8s3.582031-8 8-8c4.417968 0 8 3.582031 8 8zm0 0"/><path d="m95.714844 424h-16c-4.417969 0-8 3.582031-8 8s3.582031 8 8 8h16c4.417968 0 8-3.582031 8-8s-3.582032-8-8-8zm0 0"/><path d="m23.714844 384c0 4.417969 3.582031 8 8 8 4.417968 0 8-3.582031 8-8v-24c0-4.417969-3.582032-8-8-8-4.417969 0-8 3.582031-8 8zm0 0"/><path d="m31.714844 408c-13.253906 0-24 10.746094-24 24s10.746094 24 24 24 24-10.746094 24-24-10.746094-24-24-24zm0 32c-4.417969 0-8-3.582031-8-8s3.582031-8 8-8c4.417968 0 8 3.582031 8 8s-3.582032 8-8 8zm0 0"/><path d="m135.714844 432c0 4.417969-3.582032 8-8 8-4.417969 0-8-3.582031-8-8s3.582031-8 8-8c4.417968 0 8 3.582031 8 8zm0 0"/></g></svg>